# MagicaVoxel @ Ephtracy

# material
mtllib Hill.mtl
usemtl palette

# normals
vn -1 0 0
vn 1 0 0
vn 0 0 1
vn 0 0 -1
vn 0 -1 0
vn 0 1 0

# texcoords
vt 0.181641 0.5
vt 0.560547 0.5
vt 0.654297 0.5
vt 0.748047 0.5
vt 0.896484 0.5
vt 0.904297 0.5

# verts
v -7 0 6
v -7 0 -4
v -7 1 6
v -7 1 -4
v -6 0 8
v -6 0 6
v -6 0 -4
v -6 0 -5
v -6 1 8
v -6 1 6
v -6 1 5
v -6 1 -4
v -6 1 -5
v -6 2 5
v -6 2 -4
v -5 0 9
v -5 0 8
v -5 0 -5
v -5 0 -6
v -5 1 9
v -5 1 8
v -5 1 7
v -5 1 5
v -5 1 -4
v -5 1 -5
v -5 1 -6
v -5 2 7
v -5 2 5
v -5 2 -4
v -5 2 -5
v -5 3 5
v -5 3 -4
v -4 1 8
v -4 1 7
v -4 1 -5
v -4 1 -6
v -4 2 8
v -4 2 7
v -4 2 6
v -4 2 5
v -4 2 -4
v -4 2 -5
v -4 2 -6
v -4 3 6
v -4 3 5
v -4 3 -4
v -4 3 -5
v -3 2 7
v -3 2 6
v -3 3 7
v -3 3 6
v -3 3 3
v -3 3 -0
v -3 4 3
v -3 4 -0
v -2 3 4
v -2 3 3
v -2 3 -0
v -2 3 -3
v -2 4 4
v -2 4 3
v -2 4 -0
v -2 4 -3
v -1 3 -3
v -1 3 -4
v -1 4 3
v -1 4 1
v -1 4 -3
v -1 4 -4
v -1 5 3
v -1 5 1
v -1 5 -0
v -1 5 -3
v -1 6 1
v -1 6 -0
v 0 3 5
v 0 3 4
v 0 4 5
v 0 4 4
v 0 5 2
v 0 5 1
v 0 5 -0
v 0 5 -2
v 0 6 2
v 0 6 1
v 0 6 -0
v 0 7 1
v 0 7 -2
v 1 5 3
v 1 5 2
v 1 6 3
v 1 6 2
v 3 5 3
v 3 5 2
v 3 6 3
v 3 6 2
v 4 1 -5
v 4 1 -6
v 4 2 -5
v 4 2 -6
v 4 3 5
v 4 3 4
v 4 3 -2
v 4 3 -4
v 4 4 5
v 4 4 4
v 4 4 -3
v 4 4 -4
v 4 5 2
v 4 5 1
v 4 5 -1
v 4 5 -2
v 4 5 -3
v 4 6 2
v 4 6 1
v 4 6 -1
v 4 7 1
v 4 7 -2
v 5 1 8
v 5 1 7
v 5 1 -4
v 5 1 -5
v 5 2 8
v 5 2 7
v 5 2 6
v 5 2 -3
v 5 2 -4
v 5 3 7
v 5 3 6
v 5 3 4
v 5 3 3
v 5 3 -3
v 5 3 -5
v 5 4 4
v 5 4 3
v 5 4 -0
v 5 4 -2
v 5 5 3
v 5 5 1
v 5 5 -0
v 5 5 -1
v 5 5 -2
v 5 6 1
v 5 6 -1
v 6 0 9
v 6 0 8
v 6 0 -4
v 6 0 -6
v 6 1 9
v 6 1 8
v 6 1 -4
v 6 1 -6
v 6 2 6
v 6 2 5
v 6 2 -2
v 6 2 -3
v 6 3 6
v 6 3 5
v 6 3 3
v 6 3 -2
v 6 3 -3
v 6 4 3
v 6 4 -2
v 7 0 8
v 7 0 7
v 7 1 8
v 7 1 7
v 7 1 4
v 7 1 -3
v 7 1 -4
v 7 2 7
v 7 2 5
v 7 2 4
v 7 2 -2
v 7 2 -3
v 7 2 -4
v 7 3 5
v 7 3 -2
v 8 0 7
v 8 0 -4
v 8 1 7
v 8 1 4
v 8 1 -3
v 8 1 -4
v 8 2 4
v 8 2 -3
v -5 0 9
v -5 1 9
v 6 0 9
v 6 1 9
v -6 0 8
v -6 1 8
v -5 0 8
v -5 1 8
v -4 1 8
v -4 2 8
v 5 1 8
v 5 2 8
v 6 0 8
v 6 1 8
v 7 0 8
v 7 1 8
v -5 1 7
v -5 2 7
v -4 1 7
v -4 2 7
v -3 2 7
v -3 3 7
v 5 1 7
v 5 2 7
v 5 3 7
v 7 0 7
v 7 1 7
v 7 2 7
v 8 0 7
v 8 1 7
v -7 0 6
v -7 1 6
v -6 0 6
v -6 1 6
v -4 2 6
v -4 3 6
v -3 2 6
v -3 3 6
v 5 2 6
v 5 3 6
v 6 2 6
v 6 3 6
v -6 1 5
v -6 2 5
v -5 1 5
v -5 2 5
v -5 3 5
v -4 2 5
v -4 3 5
v 0 3 5
v 0 4 5
v 4 3 5
v 4 4 5
v 6 2 5
v 6 3 5
v 7 2 5
v 7 3 5
v -2 3 4
v -2 4 4
v 0 3 4
v 0 4 4
v 4 3 4
v 4 4 4
v 5 3 4
v 5 4 4
v 7 1 4
v 7 2 4
v 8 1 4
v 8 2 4
v -3 3 3
v -3 4 3
v -2 3 3
v -2 4 3
v -1 4 3
v -1 5 3
v 1 4 3
v 1 5 3
v 1 6 3
v 3 5 3
v 3 6 3
v 5 3 3
v 5 4 3
v 5 5 3
v 6 3 3
v 6 4 3
v 0 5 2
v 0 6 2
v 1 5 2
v 1 6 2
v 3 5 2
v 3 6 2
v 4 5 2
v 4 6 2
v -1 5 1
v -1 6 1
v 0 5 1
v 0 6 1
v 0 7 1
v 4 5 1
v 4 6 1
v 4 7 1
v 5 5 1
v 5 6 1
v -3 3 -0
v -3 4 -0
v -2 3 -0
v -2 4 -0
v -1 5 -0
v -1 6 -0
v 0 5 -0
v 0 6 -0
v 4 5 -1
v 4 6 -1
v 5 5 -1
v 5 6 -1
v 0 5 -2
v 0 7 -2
v 1 5 -2
v 4 3 -2
v 4 5 -2
v 4 7 -2
v 5 4 -2
v 5 5 -2
v 6 2 -2
v 6 3 -2
v 6 4 -2
v 7 2 -2
v 7 3 -2
v -2 3 -3
v -2 4 -3
v -1 3 -3
v -1 4 -3
v -1 5 -3
v 1 4 -3
v 1 5 -3
v 4 4 -3
v 4 5 -3
v 5 2 -3
v 5 3 -3
v 6 2 -3
v 6 3 -3
v 7 1 -3
v 7 2 -3
v 8 1 -3
v 8 2 -3
v -7 0 -4
v -7 1 -4
v -6 0 -4
v -6 1 -4
v -6 2 -4
v -5 1 -4
v -5 2 -4
v -5 3 -4
v -4 2 -4
v -4 3 -4
v -1 3 -4
v -1 4 -4
v 4 3 -4
v 4 4 -4
v 5 1 -4
v 5 2 -4
v 6 0 -4
v 6 1 -4
v 7 1 -4
v 7 2 -4
v 8 0 -4
v 8 1 -4
v -6 0 -5
v -6 1 -5
v -5 0 -5
v -5 1 -5
v -5 2 -5
v -4 1 -5
v -4 2 -5
v -4 3 -5
v 4 1 -5
v 4 2 -5
v 5 1 -5
v 5 3 -5
v -5 0 -6
v -5 1 -6
v -4 1 -6
v -4 2 -6
v 4 1 -6
v 4 2 -6
v 6 0 -6
v 6 1 -6
v -5 0 9
v 6 0 9
v -6 0 8
v -5 0 8
v 6 0 8
v 7 0 8
v 7 0 7
v 8 0 7
v -7 0 6
v -6 0 6
v -7 0 -4
v -6 0 -4
v 6 0 -4
v 8 0 -4
v -6 0 -5
v -5 0 -5
v -5 0 -6
v 6 0 -6
v -5 1 9
v 6 1 9
v -6 1 8
v -5 1 8
v -4 1 8
v 5 1 8
v 6 1 8
v 7 1 8
v -5 1 7
v -4 1 7
v 5 1 7
v 7 1 7
v 8 1 7
v -7 1 6
v -6 1 6
v -6 1 5
v -5 1 5
v 7 1 4
v 8 1 4
v 7 1 -3
v 8 1 -3
v -7 1 -4
v -6 1 -4
v -5 1 -4
v 5 1 -4
v 6 1 -4
v 7 1 -4
v 8 1 -4
v -6 1 -5
v -5 1 -5
v -4 1 -5
v 4 1 -5
v 5 1 -5
v -5 1 -6
v -4 1 -6
v 4 1 -6
v 6 1 -6
v -4 2 8
v 5 2 8
v -5 2 7
v -4 2 7
v -3 2 7
v 5 2 7
v 7 2 7
v -4 2 6
v -3 2 6
v 5 2 6
v 6 2 6
v -6 2 5
v -5 2 5
v -4 2 5
v 6 2 5
v 7 2 5
v 7 2 4
v 8 2 4
v 6 2 -2
v 7 2 -2
v 5 2 -3
v 6 2 -3
v 7 2 -3
v 8 2 -3
v -6 2 -4
v -5 2 -4
v -4 2 -4
v 5 2 -4
v 7 2 -4
v -5 2 -5
v -4 2 -5
v 4 2 -5
v -4 2 -6
v 4 2 -6
v -3 3 7
v 5 3 7
v -4 3 6
v -3 3 6
v 5 3 6
v 6 3 6
v -5 3 5
v -4 3 5
v 0 3 5
v 4 3 5
v 6 3 5
v 7 3 5
v -2 3 4
v 0 3 4
v 4 3 4
v 5 3 4
v -3 3 3
v -2 3 3
v 5 3 3
v 6 3 3
v -3 3 -0
v -2 3 -0
v 4 3 -2
v 6 3 -2
v 7 3 -2
v -2 3 -3
v -1 3 -3
v 5 3 -3
v 6 3 -3
v -5 3 -4
v -4 3 -4
v -1 3 -4
v 4 3 -4
v -4 3 -5
v 5 3 -5
v 0 4 5
v 4 4 5
v -2 4 4
v 0 4 4
v 4 4 4
v 5 4 4
v -3 4 3
v -2 4 3
v -1 4 3
v 1 4 3
v 5 4 3
v 6 4 3
v -1 4 1
v -3 4 -0
v -2 4 -0
v 5 4 -0
v 5 4 -2
v 6 4 -2
v -2 4 -3
v -1 4 -3
v 1 4 -3
v 4 4 -3
v -1 4 -4
v 4 4 -4
v -1 5 3
v 1 5 3
v 3 5 3
v 5 5 3
v 0 5 2
v 1 5 2
v 3 5 2
v 4 5 2
v -1 5 1
v 0 5 1
v 4 5 1
v 5 5 1
v -1 5 -0
v 0 5 -0
v 4 5 -1
v 5 5 -1
v 0 5 -2
v 1 5 -2
v 4 5 -2
v 5 5 -2
v -1 5 -3
v 1 5 -3
v 4 5 -3
v 1 6 3
v 3 6 3
v 0 6 2
v 1 6 2
v 3 6 2
v 4 6 2
v -1 6 1
v 0 6 1
v 4 6 1
v 5 6 1
v -1 6 -0
v 0 6 -0
v 4 6 -1
v 5 6 -1
v 0 7 1
v 4 7 1
v 0 7 -2
v 4 7 -2

# faces
f 3/3/1 2/3/1 1/3/1
f 4/3/1 2/3/1 3/3/1
f 9/3/1 6/3/1 5/3/1
f 10/3/1 6/3/1 9/3/1
f 12/3/1 8/3/1 7/3/1
f 13/3/1 8/3/1 12/3/1
f 14/3/1 12/3/1 11/3/1
f 15/3/1 12/3/1 14/3/1
f 20/3/1 17/3/1 16/3/1
f 21/3/1 17/3/1 20/3/1
f 25/3/1 19/3/1 18/3/1
f 26/3/1 19/3/1 25/3/1
f 27/3/1 23/3/1 22/3/1
f 28/3/1 23/3/1 27/3/1
f 29/3/1 25/3/1 24/3/1
f 30/3/1 25/3/1 29/3/1
f 31/3/1 29/3/1 28/3/1
f 32/3/1 29/3/1 31/3/1
f 37/3/1 34/3/1 33/3/1
f 38/3/1 34/3/1 37/3/1
f 42/3/1 36/3/1 35/3/1
f 43/3/1 36/3/1 42/3/1
f 44/3/1 40/3/1 39/3/1
f 45/3/1 40/3/1 44/3/1
f 46/3/1 42/3/1 41/3/1
f 47/3/1 42/3/1 46/3/1
f 50/3/1 49/3/1 48/3/1
f 51/3/1 49/3/1 50/3/1
f 54/3/1 53/3/1 52/3/1
f 55/3/1 53/3/1 54/3/1
f 60/3/1 57/3/1 56/3/1
f 61/3/1 57/3/1 60/3/1
f 62/3/1 59/3/1 58/3/1
f 63/3/1 59/3/1 62/3/1
f 68/3/1 65/3/1 64/3/1
f 69/3/1 65/3/1 68/3/1
f 70/3/1 67/3/1 66/3/1
f 71/1/1 68/1/1 67/1/1
f 71/3/1 67/3/1 70/3/1
f 72/1/1 68/1/1 71/1/1
f 73/1/1 68/1/1 72/1/1
f 74/1/1 72/1/1 71/1/1
f 75/1/1 72/1/1 74/1/1
f 78/3/1 77/3/1 76/3/1
f 79/3/1 77/3/1 78/3/1
f 84/1/1 81/1/1 80/1/1
f 85/1/1 81/1/1 84/1/1
f 86/1/1 83/1/1 82/1/1
f 87/1/1 86/1/1 85/1/1
f 88/1/1 83/1/1 86/1/1
f 88/1/1 86/1/1 87/1/1
f 91/1/1 90/1/1 89/1/1
f 92/1/1 90/1/1 91/1/1
f 93/1/2 94/1/2 95/1/2
f 95/1/2 94/1/2 96/1/2
f 97/3/2 98/3/2 99/3/2
f 99/3/2 98/3/2 100/3/2
f 101/3/2 102/3/2 105/3/2
f 105/3/2 102/3/2 106/3/2
f 103/3/2 104/3/2 107/3/2
f 107/3/2 104/3/2 108/3/2
f 103/3/2 107/3/2 112/3/2
f 112/3/2 107/3/2 113/3/2
f 109/1/2 110/1/2 114/1/2
f 114/1/2 110/1/2 115/1/2
f 111/1/2 112/1/2 116/1/2
f 115/1/2 116/1/2 117/1/2
f 116/1/2 112/1/2 118/1/2
f 117/1/2 116/1/2 118/1/2
f 119/3/2 120/3/2 123/3/2
f 123/3/2 120/3/2 124/3/2
f 121/3/2 122/3/2 127/3/2
f 124/3/2 125/3/2 128/3/2
f 128/3/2 125/3/2 129/3/2
f 126/3/2 127/3/2 132/3/2
f 127/3/2 122/3/2 133/3/2
f 132/3/2 127/3/2 133/3/2
f 130/3/2 131/3/2 134/3/2
f 134/3/2 131/3/2 135/3/2
f 135/1/2 136/1/2 138/1/2
f 138/1/2 136/1/2 139/1/2
f 136/3/2 137/3/2 140/3/2
f 139/1/2 136/1/2 140/1/2
f 140/3/2 137/3/2 141/3/2
f 141/3/2 137/3/2 142/3/2
f 139/1/2 140/1/2 143/1/2
f 140/1/2 141/1/2 143/1/2
f 143/1/2 141/1/2 144/1/2
f 145/3/2 146/3/2 149/3/2
f 149/3/2 146/3/2 150/3/2
f 147/3/2 148/3/2 151/3/2
f 151/3/2 148/3/2 152/3/2
f 153/3/2 154/3/2 157/3/2
f 157/3/2 154/3/2 158/3/2
f 155/3/2 156/3/2 160/3/2
f 160/3/2 156/3/2 161/3/2
f 159/3/2 160/3/2 162/3/2
f 162/3/2 160/3/2 163/3/2
f 164/3/2 165/3/2 166/3/2
f 166/3/2 165/3/2 167/3/2
f 167/3/2 168/3/2 171/3/2
f 171/3/2 168/3/2 172/3/2
f 172/3/2 168/3/2 173/3/2
f 169/3/2 170/3/2 175/3/2
f 175/3/2 170/3/2 176/3/2
f 173/3/2 174/3/2 177/3/2
f 172/3/2 173/3/2 177/3/2
f 177/3/2 174/3/2 178/3/2
f 179/3/2 180/3/2 181/3/2
f 181/3/2 180/3/2 182/3/2
f 182/3/2 180/3/2 183/3/2
f 183/3/2 180/3/2 184/3/2
f 182/3/2 183/3/2 185/3/2
f 185/3/2 183/3/2 186/3/2
f 189/3/3 188/3/3 187/3/3
f 190/3/3 188/3/3 189/3/3
f 193/3/3 192/3/3 191/3/3
f 194/3/3 192/3/3 193/3/3
f 197/3/3 196/3/3 195/3/3
f 198/3/3 196/3/3 197/3/3
f 201/3/3 200/3/3 199/3/3
f 202/3/3 200/3/3 201/3/3
f 205/3/3 204/3/3 203/3/3
f 206/3/3 204/3/3 205/3/3
f 210/3/3 208/3/3 207/3/3
f 211/3/3 208/3/3 210/3/3
f 213/3/3 210/3/3 209/3/3
f 214/3/3 210/3/3 213/3/3
f 215/3/3 213/3/3 212/3/3
f 216/3/3 213/3/3 215/3/3
f 219/3/3 218/3/3 217/3/3
f 220/3/3 218/3/3 219/3/3
f 223/3/3 222/3/3 221/3/3
f 224/3/3 222/3/3 223/3/3
f 227/3/3 226/3/3 225/3/3
f 228/3/3 226/3/3 227/3/3
f 231/3/3 230/3/3 229/3/3
f 232/3/3 230/3/3 231/3/3
f 234/3/3 233/3/3 232/3/3
f 235/3/3 233/3/3 234/3/3
f 238/3/3 237/3/3 236/3/3
f 239/3/3 237/3/3 238/3/3
f 242/3/3 241/3/3 240/3/3
f 243/3/3 241/3/3 242/3/3
f 246/3/3 245/3/3 244/3/3
f 247/3/3 245/3/3 246/3/3
f 250/3/3 249/3/3 248/3/3
f 251/3/3 249/3/3 250/3/3
f 254/3/3 253/3/3 252/3/3
f 255/3/3 253/3/3 254/3/3
f 258/3/3 257/3/3 256/3/3
f 259/3/3 257/3/3 258/3/3
f 262/3/3 261/3/3 260/3/3
f 263/3/3 261/3/3 262/3/3
f 265/1/3 263/1/3 262/1/3
f 265/1/3 264/1/3 263/1/3
f 266/1/3 264/1/3 265/1/3
f 268/1/3 265/1/3 262/1/3
f 269/1/3 265/1/3 268/1/3
f 270/3/3 268/3/3 267/3/3
f 271/3/3 268/3/3 270/3/3
f 274/1/3 273/1/3 272/1/3
f 275/1/3 273/1/3 274/1/3
f 278/1/3 277/1/3 276/1/3
f 279/1/3 277/1/3 278/1/3
f 282/1/3 281/1/3 280/1/3
f 283/1/3 281/1/3 282/1/3
f 286/1/3 284/1/3 283/1/3
f 287/1/3 284/1/3 286/1/3
f 288/1/3 286/1/3 285/1/3
f 289/1/3 286/1/3 288/1/3
f 290/3/4 291/3/4 292/3/4
f 292/3/4 291/3/4 293/3/4
f 294/1/4 295/1/4 296/1/4
f 296/1/4 295/1/4 297/1/4
f 298/1/4 299/1/4 300/1/4
f 300/1/4 299/1/4 301/1/4
f 302/1/4 303/1/4 304/1/4
f 304/1/4 303/1/4 306/1/4
f 306/1/4 303/1/4 307/1/4
f 305/3/4 306/3/4 308/3/4
f 308/3/4 306/3/4 309/3/4
f 305/3/4 308/3/4 311/3/4
f 311/3/4 308/3/4 312/3/4
f 310/3/4 311/3/4 313/3/4
f 313/3/4 311/3/4 314/3/4
f 315/3/4 316/3/4 317/3/4
f 317/3/4 316/3/4 318/3/4
f 318/1/4 319/1/4 320/1/4
f 320/1/4 319/1/4 321/1/4
f 320/3/4 321/3/4 322/3/4
f 322/3/4 321/3/4 323/3/4
f 324/3/4 325/3/4 326/3/4
f 326/3/4 325/3/4 327/3/4
f 328/3/4 329/3/4 330/3/4
f 330/3/4 329/3/4 331/3/4
f 332/3/4 333/3/4 334/3/4
f 334/3/4 333/3/4 335/3/4
f 335/3/4 336/3/4 337/3/4
f 337/3/4 336/3/4 338/3/4
f 338/3/4 339/3/4 340/3/4
f 340/3/4 339/3/4 341/3/4
f 342/3/4 343/3/4 344/3/4
f 344/3/4 343/3/4 345/3/4
f 346/3/4 347/3/4 349/3/4
f 349/3/4 347/3/4 350/3/4
f 348/3/4 349/3/4 350/3/4
f 350/3/4 347/3/4 351/3/4
f 348/3/4 350/3/4 352/3/4
f 352/3/4 350/3/4 353/3/4
f 354/3/4 355/3/4 356/3/4
f 356/3/4 355/3/4 357/3/4
f 357/3/4 358/3/4 359/3/4
f 359/3/4 358/3/4 360/3/4
f 360/3/4 361/3/4 363/3/4
f 362/3/4 363/3/4 364/3/4
f 363/3/4 361/3/4 365/3/4
f 364/3/4 363/3/4 365/3/4
f 366/3/4 367/3/4 368/3/4
f 366/3/4 368/3/4 370/3/4
f 368/3/4 369/3/4 370/3/4
f 370/3/4 369/3/4 371/3/4
f 366/3/4 370/3/4 372/3/4
f 372/3/4 370/3/4 373/3/4
f 377/3/5 375/3/5 374/3/5
f 378/3/5 375/3/5 377/3/5
f 380/3/5 377/3/5 376/3/5
f 380/3/5 379/3/5 378/3/5
f 380/3/5 378/3/5 377/3/5
f 383/3/5 380/3/5 376/3/5
f 383/3/5 381/3/5 380/3/5
f 384/3/5 383/3/5 382/3/5
f 385/3/5 381/3/5 383/3/5
f 385/3/5 383/3/5 384/3/5
f 386/3/5 381/3/5 385/3/5
f 387/3/5 381/3/5 386/3/5
f 388/3/5 386/3/5 385/3/5
f 389/3/5 386/3/5 388/3/5
f 390/3/5 386/3/5 389/3/5
f 391/3/5 386/3/5 390/3/5
f 392/3/6 393/3/6 395/3/6
f 395/3/6 393/3/6 396/3/6
f 396/3/6 393/3/6 397/3/6
f 397/3/6 393/3/6 398/3/6
f 394/3/6 395/3/6 400/3/6
f 395/3/6 396/3/6 400/3/6
f 400/3/6 396/3/6 401/3/6
f 398/3/6 399/3/6 402/3/6
f 397/3/6 398/3/6 402/3/6
f 402/3/6 399/3/6 403/3/6
f 394/3/6 400/3/6 406/3/6
f 406/3/6 400/3/6 407/3/6
f 405/3/6 406/3/6 407/3/6
f 407/3/6 400/3/6 408/3/6
f 403/3/6 404/3/6 409/3/6
f 409/3/6 404/3/6 410/3/6
f 405/3/6 407/3/6 413/3/6
f 413/3/6 407/3/6 414/3/6
f 411/3/6 412/3/6 418/3/6
f 418/3/6 412/3/6 419/3/6
f 414/3/6 415/3/6 420/3/6
f 420/3/6 415/3/6 421/3/6
f 416/3/6 417/3/6 424/3/6
f 421/3/6 422/3/6 425/3/6
f 425/3/6 422/3/6 426/3/6
f 423/3/6 424/3/6 427/3/6
f 424/3/6 417/3/6 428/3/6
f 427/3/6 424/3/6 428/3/6
f 429/3/6 430/3/6 432/3/6
f 432/3/6 430/3/6 433/3/6
f 433/3/6 430/3/6 434/3/6
f 431/3/6 432/3/6 436/3/6
f 432/3/6 433/3/6 436/3/6
f 436/3/6 433/3/6 437/3/6
f 434/3/6 435/3/6 438/3/6
f 438/3/6 435/3/6 439/3/6
f 431/3/6 436/3/6 441/3/6
f 441/3/6 436/3/6 442/3/6
f 439/3/6 435/3/6 443/3/6
f 443/3/6 435/3/6 444/3/6
f 445/3/6 446/3/6 448/3/6
f 447/3/6 448/3/6 450/3/6
f 448/3/6 446/3/6 451/3/6
f 450/3/6 448/3/6 451/3/6
f 451/3/6 446/3/6 452/3/6
f 440/3/6 441/3/6 453/3/6
f 453/3/6 441/3/6 454/3/6
f 449/3/6 450/3/6 456/3/6
f 450/3/6 451/3/6 456/3/6
f 456/3/6 451/3/6 457/3/6
f 454/3/6 455/3/6 458/3/6
f 458/3/6 455/3/6 459/3/6
f 459/3/6 460/3/6 461/3/6
f 461/3/6 460/3/6 462/3/6
f 463/3/6 464/3/6 466/3/6
f 466/3/6 464/3/6 467/3/6
f 465/3/6 466/3/6 470/3/6
f 467/3/6 468/3/6 470/3/6
f 466/3/6 467/3/6 470/3/6
f 470/3/6 468/3/6 471/3/6
f 471/3/6 468/3/6 472/3/6
f 472/3/6 468/3/6 473/3/6
f 469/3/6 470/3/6 475/3/6
f 470/3/6 471/3/6 475/3/6
f 475/3/6 471/3/6 476/3/6
f 473/3/6 474/3/6 477/3/6
f 472/3/6 473/3/6 477/3/6
f 477/3/6 474/3/6 478/3/6
f 469/3/6 475/3/6 479/3/6
f 479/3/6 475/3/6 480/3/6
f 478/3/6 474/3/6 481/3/6
f 481/3/6 474/3/6 482/3/6
f 469/3/6 479/3/6 483/3/6
f 482/3/6 474/3/6 486/3/6
f 486/3/6 474/3/6 487/3/6
f 483/3/6 484/3/6 488/3/6
f 485/3/6 486/3/6 490/3/6
f 490/3/6 486/3/6 491/3/6
f 469/3/6 483/3/6 492/3/6
f 488/3/6 489/3/6 492/3/6
f 483/3/6 488/3/6 492/3/6
f 492/3/6 489/3/6 493/3/6
f 493/3/6 489/3/6 494/3/6
f 485/3/6 490/3/6 495/3/6
f 493/3/6 494/3/6 496/3/6
f 494/3/6 495/3/6 496/3/6
f 495/3/6 490/3/6 497/3/6
f 496/3/6 495/3/6 497/3/6
f 498/3/6 499/3/6 501/3/6
f 501/3/6 499/3/6 502/3/6
f 500/3/6 501/3/6 505/3/6
f 502/3/6 503/3/6 505/3/6
f 501/3/6 502/3/6 505/3/6
f 505/3/6 503/3/6 506/3/6
f 506/3/6 503/3/6 507/3/6
f 507/3/6 503/3/6 508/3/6
f 504/3/6 505/3/6 510/3/6
f 505/3/6 506/3/6 510/3/6
f 504/3/6 510/3/6 511/3/6
f 511/3/6 510/3/6 512/3/6
f 508/3/6 509/3/6 513/3/6
f 513/3/6 509/3/6 514/3/6
f 514/3/6 509/3/6 515/3/6
f 512/3/6 510/3/6 516/3/6
f 516/3/6 510/3/6 517/3/6
f 518/3/6 519/3/6 520/3/6
f 517/3/6 518/3/6 520/3/6
f 520/3/6 519/3/6 521/3/6
f 522/3/6 523/3/6 526/3/6
f 526/3/6 523/3/6 527/3/6
f 524/1/6 525/1/6 528/1/6
f 528/1/6 525/1/6 529/1/6
f 522/3/6 526/3/6 530/3/6
f 530/3/6 526/3/6 531/3/6
f 529/1/6 525/1/6 532/1/6
f 532/1/6 525/1/6 533/1/6
f 534/1/6 535/1/6 538/1/6
f 536/3/6 537/3/6 540/3/6
f 540/3/6 537/3/6 541/3/6
f 538/1/6 539/1/6 542/1/6
f 534/1/6 538/1/6 542/1/6
f 539/3/6 540/3/6 543/3/6
f 542/1/6 539/1/6 543/1/6
f 543/3/6 540/3/6 544/3/6
f 545/1/6 546/1/6 548/1/6
f 548/1/6 546/1/6 549/1/6
f 547/1/6 548/1/6 552/1/6
f 549/1/6 550/1/6 552/1/6
f 548/1/6 549/1/6 552/1/6
f 552/1/6 550/1/6 553/1/6
f 551/1/6 552/1/6 555/1/6
f 555/1/6 552/1/6 556/1/6
f 553/1/6 554/1/6 557/1/6
f 557/1/6 554/1/6 558/1/6
f 559/1/6 560/1/6 561/1/6
f 561/1/6 560/1/6 562/1/6
