# MagicaVoxel @ Ephtracy

# material
mtllib kaczka.mtl
usemtl palette

# normals
vn -1 0 0
vn 1 0 0
vn 0 0 1
vn 0 0 -1
vn 0 -1 0
vn 0 1 0

# texcoords
vt 0.0917969 0.5
vt 0.162109 0.5
vt 0.533203 0.5
vt 0.537109 0.5
vt 0.599609 0.5
vt 0.865234 0.5
vt 0.958984 0.5
vt 0.994141 0.5

# verts
v -13 7 7
v -13 7 -4
v -13 8 -3
v -13 8 -4
v -13 9 7
v -13 9 -3
v -12 9 7
v -12 9 -2
v -12 10 -1
v -12 10 -2
v -12 11 7
v -12 11 -1
v -11 11 7
v -11 11 -0
v -11 12 7
v -11 12 -0
v -9 0 7
v -9 0 2
v -9 1 7
v -9 1 2
v -9 6 6
v -9 6 2
v -9 7 7
v -9 7 6
v -9 7 2
v -9 7 1
v -9 9 7
v -9 9 1
v -9 11 7
v -9 11 1
v -9 12 7
v -9 12 1
v -9 14 7
v -9 14 1
v -8 1 5
v -8 1 3
v -8 6 5
v -8 6 3
v -8 7 1
v -8 7 -0
v -8 9 1
v -8 9 -0
v -8 12 1
v -8 12 -0
v -8 16 6
v -8 16 3
v -8 17 5
v -8 17 4
v -8 18 5
v -8 18 4
v -8 19 6
v -8 19 3
v -7 7 -0
v -7 7 -3
v -7 9 -0
v -7 9 -3
v -7 12 -0
v -7 12 -3
v -7 14 7
v -7 14 1
v -7 15 7
v -7 15 1
v -7 16 6
v -7 16 3
v -7 19 6
v -7 19 3
v -7 20 7
v -7 20 1
v -6 7 -3
v -6 7 -4
v -6 9 -3
v -6 9 -4
v -6 12 -3
v -6 12 -4
v -6 17 11
v -6 17 7
v -6 18 11
v -6 18 7
v -4 0 7
v -4 0 2
v -4 1 7
v -4 1 2
v -4 6 6
v -4 6 2
v -4 7 6
v -4 7 2
v -3 1 5
v -3 1 3
v -3 6 5
v -3 6 3
v 1 10 7
v 1 10 -1
v 1 11 7
v 1 11 1
v 1 11 -0
v 1 11 -1
v 1 12 1
v 1 12 -0
v 2 3 8
v 2 3 5
v 2 6 8
v 2 6 7
v 2 6 6
v 2 6 5
v 2 7 7
v 2 7 6
v 2 8 7
v 2 8 -3
v 2 9 -2
v 2 9 -3
v 2 10 7
v 2 10 -1
v 2 10 -2
v 3 7 7
v 3 7 6
v 3 7 -4
v 3 8 7
v 3 8 -3
v 3 8 -4
v -12 7 7
v -12 7 -4
v -12 8 7
v -12 8 -3
v -12 8 -4
v -11 8 7
v -11 8 -3
v -11 9 -2
v -11 9 -3
v -11 10 7
v -11 10 -1
v -11 10 -2
v -10 10 7
v -10 10 -1
v -10 11 7
v -10 11 1
v -10 11 -0
v -10 11 -1
v -10 12 1
v -10 12 -0
v -6 1 5
v -6 1 3
v -6 6 5
v -6 6 3
v -5 0 7
v -5 0 2
v -5 1 7
v -5 1 2
v -5 6 6
v -5 6 2
v -5 7 6
v -5 7 2
v -3 7 -3
v -3 7 -4
v -3 9 -3
v -3 9 -4
v -3 12 -3
v -3 12 -4
v -3 17 11
v -3 17 7
v -3 18 11
v -3 18 7
v -2 7 -0
v -2 7 -3
v -2 9 -0
v -2 9 -3
v -2 12 -0
v -2 12 -3
v -2 14 7
v -2 14 1
v -2 15 7
v -2 15 1
v -2 16 6
v -2 16 3
v -2 19 6
v -2 19 3
v -2 20 7
v -2 20 1
v -1 1 5
v -1 1 3
v -1 6 5
v -1 6 3
v -1 7 1
v -1 7 -0
v -1 9 1
v -1 9 -0
v -1 12 1
v -1 12 -0
v -1 16 6
v -1 16 3
v -1 17 5
v -1 17 4
v -1 18 5
v -1 18 4
v -1 19 6
v -1 19 3
v 0 0 7
v 0 0 2
v 0 1 7
v 0 1 2
v 0 6 6
v 0 6 2
v 0 7 7
v 0 7 6
v 0 7 2
v 0 7 1
v 0 9 7
v 0 9 1
v 0 11 7
v 0 11 1
v 0 12 7
v 0 12 1
v 0 14 7
v 0 14 1
v 2 11 7
v 2 11 -0
v 2 12 7
v 2 12 -0
v 3 9 7
v 3 9 -2
v 3 10 -1
v 3 10 -2
v 3 11 7
v 3 11 -1
v 4 7 7
v 4 7 6
v 4 7 -4
v 4 8 -3
v 4 8 -4
v 4 9 7
v 4 9 -3
v 5 3 8
v 5 3 5
v 5 6 8
v 5 6 7
v 5 6 6
v 5 6 5
v 5 7 7
v 5 7 6
v -6 17 11
v -6 18 11
v -3 17 11
v -3 18 11
v 2 3 8
v 2 6 8
v 5 3 8
v 5 6 8
v -13 7 7
v -13 9 7
v -12 7 7
v -12 8 7
v -12 9 7
v -12 11 7
v -11 8 7
v -11 10 7
v -11 11 7
v -11 12 7
v -10 10 7
v -10 11 7
v -9 0 7
v -9 1 7
v -9 7 7
v -9 9 7
v -9 11 7
v -9 12 7
v -9 14 7
v -7 14 7
v -7 15 7
v -7 20 7
v -6 17 7
v -6 18 7
v -5 0 7
v -5 1 7
v -4 0 7
v -4 1 7
v -3 17 7
v -3 18 7
v -2 14 7
v -2 15 7
v -2 20 7
v 0 0 7
v 0 1 7
v 0 7 7
v 0 9 7
v 0 11 7
v 0 12 7
v 0 14 7
v 1 10 7
v 1 11 7
v 2 6 7
v 2 7 7
v 2 8 7
v 2 10 7
v 2 11 7
v 2 12 7
v 3 7 7
v 3 8 7
v 3 9 7
v 3 11 7
v 4 7 7
v 4 9 7
v 5 6 7
v 5 7 7
v -9 6 6
v -9 7 6
v -8 16 6
v -8 19 6
v -7 16 6
v -7 19 6
v -5 6 6
v -5 7 6
v -4 6 6
v -4 7 6
v -2 16 6
v -2 19 6
v -1 16 6
v -1 19 6
v 0 6 6
v 0 7 6
v -8 1 5
v -8 6 5
v -6 1 5
v -6 6 5
v -3 1 5
v -3 6 5
v -1 1 5
v -1 6 5
v 2 6 6
v 2 7 6
v 3 7 6
v 4 7 6
v 5 6 6
v 5 7 6
v 2 3 5
v 2 6 5
v 5 3 5
v 5 6 5
v -8 1 3
v -8 6 3
v -8 16 3
v -8 19 3
v -7 16 3
v -7 19 3
v -6 1 3
v -6 6 3
v -3 1 3
v -3 6 3
v -2 16 3
v -2 19 3
v -1 1 3
v -1 6 3
v -1 16 3
v -1 19 3
v -9 0 2
v -9 1 2
v -9 6 2
v -9 7 2
v -5 0 2
v -5 1 2
v -5 6 2
v -5 7 2
v -4 0 2
v -4 1 2
v -4 6 2
v -4 7 2
v 0 0 2
v 0 1 2
v 0 6 2
v 0 7 2
v -10 11 1
v -10 12 1
v -9 7 1
v -9 9 1
v -9 11 1
v -9 12 1
v -9 14 1
v -8 7 1
v -8 9 1
v -8 12 1
v -7 14 1
v -7 15 1
v -7 20 1
v -2 14 1
v -2 15 1
v -2 20 1
v -1 7 1
v -1 9 1
v -1 12 1
v 0 7 1
v 0 9 1
v 0 11 1
v 0 12 1
v 0 14 1
v 1 11 1
v 1 12 1
v -11 11 -0
v -11 12 -0
v -10 11 -0
v -10 12 -0
v -8 7 -0
v -8 9 -0
v -8 12 -0
v -7 7 -0
v -7 9 -0
v -7 12 -0
v -2 7 -0
v -2 9 -0
v -2 12 -0
v -1 7 -0
v -1 9 -0
v -1 12 -0
v 1 11 -0
v 1 12 -0
v 2 11 -0
v 2 12 -0
v -12 10 -1
v -12 11 -1
v -11 10 -1
v -10 10 -1
v -10 11 -1
v 1 10 -1
v 1 11 -1
v 2 10 -1
v 3 10 -1
v 3 11 -1
v -12 9 -2
v -12 10 -2
v -11 9 -2
v -11 10 -2
v 2 9 -2
v 2 10 -2
v 3 9 -2
v 3 10 -2
v -13 8 -3
v -13 9 -3
v -12 8 -3
v -11 8 -3
v -11 9 -3
v -7 7 -3
v -7 9 -3
v -7 12 -3
v -6 7 -3
v -6 9 -3
v -6 12 -3
v -3 7 -3
v -3 9 -3
v -3 12 -3
v -2 7 -3
v -2 9 -3
v -2 12 -3
v 2 8 -3
v 2 9 -3
v 3 8 -3
v 4 8 -3
v 4 9 -3
v -13 7 -4
v -13 8 -4
v -12 7 -4
v -12 8 -4
v -6 7 -4
v -6 9 -4
v -6 12 -4
v -3 7 -4
v -3 9 -4
v -3 12 -4
v 3 7 -4
v 3 8 -4
v 4 7 -4
v 4 8 -4
v -9 0 7
v -5 0 7
v -4 0 7
v 0 0 7
v -9 0 2
v -5 0 2
v -4 0 2
v 0 0 2
v 2 3 8
v 5 3 8
v 2 3 5
v 5 3 5
v -9 6 6
v -5 6 6
v -4 6 6
v 0 6 6
v -8 6 5
v -6 6 5
v -3 6 5
v -1 6 5
v -8 6 3
v -6 6 3
v -3 6 3
v -1 6 3
v -9 6 2
v -5 6 2
v -4 6 2
v 0 6 2
v -13 7 7
v -12 7 7
v -9 7 7
v 0 7 7
v -9 7 6
v -5 7 6
v -4 7 6
v 0 7 6
v 3 7 6
v 4 7 6
v -9 7 2
v -5 7 2
v -4 7 2
v 0 7 2
v -9 7 1
v -8 7 1
v -1 7 1
v 0 7 1
v -8 7 -0
v -7 7 -0
v -2 7 -0
v -1 7 -0
v -7 7 -3
v -6 7 -3
v -3 7 -3
v -2 7 -3
v -13 7 -4
v -12 7 -4
v -6 7 -4
v -3 7 -4
v 3 7 -4
v 4 7 -4
v -12 8 7
v -11 8 7
v 2 8 7
v 3 8 7
v -12 8 -3
v -11 8 -3
v 2 8 -3
v 3 8 -3
v -11 10 7
v -10 10 7
v 1 10 7
v 2 10 7
v -11 10 -1
v -10 10 -1
v 1 10 -1
v 2 10 -1
v -10 11 7
v -9 11 7
v 0 11 7
v 1 11 7
v -10 11 1
v -9 11 1
v 0 11 1
v 1 11 1
v -8 16 6
v -7 16 6
v -2 16 6
v -1 16 6
v -8 16 3
v -7 16 3
v -2 16 3
v -1 16 3
v -6 17 11
v -3 17 11
v -6 17 7
v -3 17 7
v -9 1 7
v -5 1 7
v -4 1 7
v 0 1 7
v -8 1 5
v -6 1 5
v -3 1 5
v -1 1 5
v -8 1 3
v -6 1 3
v -3 1 3
v -1 1 3
v -9 1 2
v -5 1 2
v -4 1 2
v 0 1 2
v 2 6 8
v 5 6 8
v 2 6 7
v 5 6 7
v 2 6 6
v 5 6 6
v 2 6 5
v 5 6 5
v 2 7 7
v 3 7 7
v 4 7 7
v 5 7 7
v 2 7 6
v 3 7 6
v 4 7 6
v 5 7 6
v -13 8 -3
v -12 8 -3
v 3 8 -3
v 4 8 -3
v -13 8 -4
v -12 8 -4
v 3 8 -4
v 4 8 -4
v -13 9 7
v -12 9 7
v 3 9 7
v 4 9 7
v -12 9 -2
v -11 9 -2
v 2 9 -2
v 3 9 -2
v -13 9 -3
v -11 9 -3
v 2 9 -3
v 4 9 -3
v -12 10 -1
v -11 10 -1
v 2 10 -1
v 3 10 -1
v -12 10 -2
v -11 10 -2
v 2 10 -2
v 3 10 -2
v -12 11 7
v -11 11 7
v 2 11 7
v 3 11 7
v -11 11 -0
v -10 11 -0
v 1 11 -0
v 2 11 -0
v -12 11 -1
v -10 11 -1
v 1 11 -1
v 3 11 -1
v -11 12 7
v -9 12 7
v 0 12 7
v 2 12 7
v -10 12 1
v -9 12 1
v -8 12 1
v -1 12 1
v 0 12 1
v 1 12 1
v -11 12 -0
v -10 12 -0
v -8 12 -0
v -7 12 -0
v -2 12 -0
v -1 12 -0
v 1 12 -0
v 2 12 -0
v -7 12 -3
v -6 12 -3
v -3 12 -3
v -2 12 -3
v -6 12 -4
v -3 12 -4
v -9 14 7
v -7 14 7
v -2 14 7
v 0 14 7
v -9 14 1
v -7 14 1
v -2 14 1
v 0 14 1
v -6 18 11
v -3 18 11
v -6 18 7
v -3 18 7
v -8 19 6
v -7 19 6
v -2 19 6
v -1 19 6
v -8 19 3
v -7 19 3
v -2 19 3
v -1 19 3
v -7 20 7
v -2 20 7
v -7 20 1
v -2 20 1

# faces
f 3/3/1 2/3/1 1/3/1
f 4/3/1 2/3/1 3/3/1
f 5/3/1 3/3/1 1/3/1
f 6/3/1 3/3/1 5/3/1
f 9/3/1 8/3/1 7/3/1
f 10/3/1 8/3/1 9/3/1
f 11/3/1 9/3/1 7/3/1
f 12/3/1 9/3/1 11/3/1
f 15/3/1 14/3/1 13/3/1
f 16/3/1 14/3/1 15/3/1
f 19/1/1 18/1/1 17/1/1
f 20/1/1 18/1/1 19/1/1
f 24/4/1 22/4/1 21/4/1
f 25/4/1 22/4/1 24/4/1
f 27/4/1 25/4/1 24/4/1
f 27/4/1 26/4/1 25/4/1
f 27/4/1 24/4/1 23/4/1
f 28/4/1 26/4/1 27/4/1
f 29/3/1 28/3/1 27/3/1
f 30/3/1 28/3/1 29/3/1
f 33/3/1 32/3/1 31/3/1
f 34/3/1 32/3/1 33/3/1
f 37/1/1 36/1/1 35/1/1
f 38/1/1 36/1/1 37/1/1
f 41/4/1 40/4/1 39/4/1
f 42/4/1 40/4/1 41/4/1
f 43/3/1 42/3/1 41/3/1
f 44/3/1 42/3/1 43/3/1
f 47/7/1 46/7/1 45/7/1
f 48/7/1 46/7/1 47/7/1
f 49/7/1 47/7/1 45/7/1
f 49/8/1 48/8/1 47/8/1
f 50/7/1 46/7/1 48/7/1
f 50/8/1 48/8/1 49/8/1
f 51/7/1 49/7/1 45/7/1
f 51/7/1 50/7/1 49/7/1
f 52/7/1 46/7/1 50/7/1
f 52/7/1 50/7/1 51/7/1
f 55/4/1 54/4/1 53/4/1
f 56/4/1 54/4/1 55/4/1
f 57/3/1 56/3/1 55/3/1
f 58/3/1 56/3/1 57/3/1
f 61/7/1 60/7/1 59/7/1
f 62/7/1 60/7/1 61/7/1
f 63/5/1 62/5/1 61/5/1
f 64/5/1 62/5/1 63/5/1
f 65/5/1 63/5/1 61/5/1
f 66/5/1 62/5/1 64/5/1
f 67/5/1 65/5/1 61/5/1
f 67/5/1 66/5/1 65/5/1
f 68/5/1 62/5/1 66/5/1
f 68/5/1 66/5/1 67/5/1
f 71/4/1 70/4/1 69/4/1
f 72/4/1 70/4/1 71/4/1
f 73/3/1 72/3/1 71/3/1
f 74/3/1 72/3/1 73/3/1
f 77/2/1 76/2/1 75/2/1
f 78/2/1 76/2/1 77/2/1
f 81/1/1 80/1/1 79/1/1
f 82/1/1 80/1/1 81/1/1
f 85/4/1 84/4/1 83/4/1
f 86/4/1 84/4/1 85/4/1
f 89/1/1 88/1/1 87/1/1
f 90/1/1 88/1/1 89/1/1
f 93/3/1 92/3/1 91/3/1
f 94/3/1 92/3/1 93/3/1
f 95/3/1 92/3/1 94/3/1
f 96/3/1 92/3/1 95/3/1
f 97/3/1 95/3/1 94/3/1
f 98/3/1 95/3/1 97/3/1
f 101/6/1 100/6/1 99/6/1
f 102/6/1 100/6/1 101/6/1
f 103/6/1 100/6/1 102/6/1
f 104/6/1 100/6/1 103/6/1
f 105/6/1 103/6/1 102/6/1
f 106/6/1 103/6/1 105/6/1
f 109/3/1 108/3/1 107/3/1
f 110/3/1 108/3/1 109/3/1
f 111/3/1 109/3/1 107/3/1
f 112/3/1 109/3/1 111/3/1
f 113/3/1 109/3/1 112/3/1
f 117/3/1 115/3/1 114/3/1
f 117/3/1 116/3/1 115/3/1
f 118/3/1 116/3/1 117/3/1
f 119/3/1 116/3/1 118/3/1
f 120/3/2 121/3/2 122/3/2
f 122/3/2 121/3/2 123/3/2
f 123/3/2 121/3/2 124/3/2
f 125/3/2 126/3/2 127/3/2
f 127/3/2 126/3/2 128/3/2
f 125/3/2 127/3/2 129/3/2
f 129/3/2 127/3/2 130/3/2
f 130/3/2 127/3/2 131/3/2
f 132/3/2 133/3/2 134/3/2
f 134/3/2 133/3/2 135/3/2
f 135/3/2 133/3/2 136/3/2
f 136/3/2 133/3/2 137/3/2
f 135/3/2 136/3/2 138/3/2
f 138/3/2 136/3/2 139/3/2
f 140/1/2 141/1/2 142/1/2
f 142/1/2 141/1/2 143/1/2
f 144/1/2 145/1/2 146/1/2
f 146/1/2 145/1/2 147/1/2
f 148/4/2 149/4/2 150/4/2
f 150/4/2 149/4/2 151/4/2
f 152/4/2 153/4/2 154/4/2
f 154/4/2 153/4/2 155/4/2
f 154/3/2 155/3/2 156/3/2
f 156/3/2 155/3/2 157/3/2
f 158/2/2 159/2/2 160/2/2
f 160/2/2 159/2/2 161/2/2
f 162/4/2 163/4/2 164/4/2
f 164/4/2 163/4/2 165/4/2
f 164/3/2 165/3/2 166/3/2
f 166/3/2 165/3/2 167/3/2
f 168/7/2 169/7/2 170/7/2
f 170/7/2 169/7/2 171/7/2
f 170/5/2 171/5/2 172/5/2
f 172/5/2 171/5/2 173/5/2
f 170/5/2 172/5/2 174/5/2
f 173/5/2 171/5/2 175/5/2
f 170/5/2 174/5/2 176/5/2
f 174/5/2 175/5/2 176/5/2
f 175/5/2 171/5/2 177/5/2
f 176/5/2 175/5/2 177/5/2
f 178/1/2 179/1/2 180/1/2
f 180/1/2 179/1/2 181/1/2
f 182/4/2 183/4/2 184/4/2
f 184/4/2 183/4/2 185/4/2
f 184/3/2 185/3/2 186/3/2
f 186/3/2 185/3/2 187/3/2
f 188/7/2 189/7/2 190/7/2
f 190/7/2 189/7/2 191/7/2
f 188/7/2 190/7/2 192/7/2
f 190/8/2 191/8/2 192/8/2
f 191/7/2 189/7/2 193/7/2
f 192/8/2 191/8/2 193/8/2
f 188/7/2 192/7/2 194/7/2
f 192/7/2 193/7/2 194/7/2
f 193/7/2 189/7/2 195/7/2
f 194/7/2 193/7/2 195/7/2
f 196/1/2 197/1/2 198/1/2
f 198/1/2 197/1/2 199/1/2
f 200/4/2 201/4/2 203/4/2
f 203/4/2 201/4/2 204/4/2
f 203/4/2 204/4/2 206/4/2
f 204/4/2 205/4/2 206/4/2
f 202/4/2 203/4/2 206/4/2
f 206/4/2 205/4/2 207/4/2
f 206/3/2 207/3/2 208/3/2
f 208/3/2 207/3/2 209/3/2
f 210/3/2 211/3/2 212/3/2
f 212/3/2 211/3/2 213/3/2
f 214/3/2 215/3/2 216/3/2
f 216/3/2 215/3/2 217/3/2
f 218/3/2 219/3/2 220/3/2
f 220/3/2 219/3/2 221/3/2
f 218/3/2 220/3/2 222/3/2
f 222/3/2 220/3/2 223/3/2
f 224/3/2 225/3/2 227/3/2
f 225/3/2 226/3/2 227/3/2
f 227/3/2 226/3/2 228/3/2
f 224/3/2 227/3/2 229/3/2
f 229/3/2 227/3/2 230/3/2
f 231/6/2 232/6/2 233/6/2
f 233/6/2 232/6/2 234/6/2
f 234/6/2 232/6/2 235/6/2
f 235/6/2 232/6/2 236/6/2
f 234/6/2 235/6/2 237/6/2
f 237/6/2 235/6/2 238/6/2
f 241/2/3 240/2/3 239/2/3
f 242/2/3 240/2/3 241/2/3
f 245/6/3 244/6/3 243/6/3
f 246/6/3 244/6/3 245/6/3
f 249/3/3 248/3/3 247/3/3
f 250/3/3 248/3/3 249/3/3
f 251/3/3 248/3/3 250/3/3
f 253/3/3 252/3/3 251/3/3
f 253/3/3 251/3/3 250/3/3
f 254/3/3 252/3/3 253/3/3
f 255/3/3 252/3/3 254/3/3
f 257/3/3 256/3/3 255/3/3
f 257/3/3 255/3/3 254/3/3
f 258/3/3 256/3/3 257/3/3
f 263/3/3 256/3/3 258/3/3
f 264/3/3 256/3/3 263/3/3
f 266/3/3 263/3/3 262/3/3
f 266/3/3 265/3/3 264/3/3
f 266/3/3 264/3/3 263/3/3
f 269/5/3 268/5/3 267/5/3
f 270/5/3 268/5/3 269/5/3
f 271/1/3 260/1/3 259/1/3
f 272/1/3 260/1/3 271/1/3
f 275/5/3 269/5/3 267/5/3
f 276/5/3 268/5/3 270/5/3
f 277/3/3 266/3/3 262/3/3
f 277/7/3 267/7/3 266/7/3
f 278/5/3 275/5/3 267/5/3
f 278/7/3 267/7/3 277/7/3
f 278/5/3 276/5/3 275/5/3
f 279/5/3 268/5/3 276/5/3
f 279/5/3 276/5/3 278/5/3
f 280/1/3 274/1/3 273/1/3
f 281/1/3 274/1/3 280/1/3
f 282/4/3 262/4/3 261/4/3
f 283/3/3 277/3/3 262/3/3
f 283/4/3 262/4/3 282/4/3
f 284/3/3 277/3/3 283/3/3
f 285/3/3 277/3/3 284/3/3
f 286/3/3 277/3/3 285/3/3
f 288/3/3 285/3/3 284/3/3
f 292/3/3 288/3/3 287/3/3
f 293/3/3 285/3/3 288/3/3
f 293/3/3 288/3/3 292/3/3
f 294/3/3 285/3/3 293/3/3
f 295/6/3 290/6/3 289/6/3
f 296/3/3 292/3/3 291/3/3
f 296/3/3 293/3/3 292/3/3
f 297/3/3 293/3/3 296/3/3
f 298/3/3 293/3/3 297/3/3
f 299/6/3 295/6/3 289/6/3
f 299/3/3 296/3/3 295/3/3
f 299/3/3 297/3/3 296/3/3
f 300/3/3 297/3/3 299/3/3
f 301/6/3 299/6/3 289/6/3
f 302/6/3 299/6/3 301/6/3
f 307/7/3 306/7/3 305/7/3
f 308/7/3 306/7/3 307/7/3
f 309/4/3 304/4/3 303/4/3
f 310/4/3 304/4/3 309/4/3
f 315/7/3 314/7/3 313/7/3
f 316/7/3 314/7/3 315/7/3
f 317/4/3 312/4/3 311/4/3
f 318/4/3 312/4/3 317/4/3
f 321/1/3 320/1/3 319/1/3
f 322/1/3 320/1/3 321/1/3
f 325/1/3 324/1/3 323/1/3
f 326/1/3 324/1/3 325/1/3
f 327/6/4 328/6/4 329/6/4
f 327/6/4 329/6/4 330/6/4
f 327/6/4 330/6/4 331/6/4
f 331/6/4 330/6/4 332/6/4
f 333/6/4 334/6/4 335/6/4
f 335/6/4 334/6/4 336/6/4
f 339/7/4 340/7/4 341/7/4
f 341/7/4 340/7/4 342/7/4
f 337/1/4 338/1/4 343/1/4
f 343/1/4 338/1/4 344/1/4
f 345/1/4 346/1/4 349/1/4
f 349/1/4 346/1/4 350/1/4
f 347/7/4 348/7/4 351/7/4
f 351/7/4 348/7/4 352/7/4
f 353/1/4 354/1/4 357/1/4
f 357/1/4 354/1/4 358/1/4
f 355/4/4 356/4/4 359/4/4
f 359/4/4 356/4/4 360/4/4
f 361/1/4 362/1/4 365/1/4
f 365/1/4 362/1/4 366/1/4
f 363/4/4 364/4/4 367/4/4
f 367/4/4 364/4/4 368/4/4
f 369/3/4 370/3/4 373/3/4
f 373/3/4 370/3/4 374/3/4
f 371/4/4 372/4/4 376/4/4
f 374/3/4 375/3/4 377/3/4
f 376/4/4 372/4/4 377/4/4
f 372/3/4 373/3/4 377/3/4
f 373/3/4 374/3/4 377/3/4
f 377/3/4 375/3/4 378/3/4
f 378/3/4 375/3/4 379/3/4
f 378/3/4 379/3/4 382/3/4
f 379/7/4 380/7/4 382/7/4
f 380/5/4 381/5/4 383/5/4
f 382/7/4 380/7/4 383/7/4
f 383/5/4 381/5/4 384/5/4
f 378/3/4 382/3/4 387/3/4
f 385/4/4 386/4/4 388/4/4
f 386/3/4 387/3/4 389/3/4
f 388/4/4 386/4/4 389/4/4
f 389/3/4 387/3/4 390/3/4
f 387/3/4 382/3/4 391/3/4
f 390/3/4 387/3/4 391/3/4
f 391/3/4 382/3/4 392/3/4
f 390/3/4 391/3/4 393/3/4
f 393/3/4 391/3/4 394/3/4
f 395/3/4 396/3/4 397/3/4
f 397/3/4 396/3/4 398/3/4
f 399/4/4 400/4/4 402/4/4
f 400/3/4 401/3/4 403/3/4
f 402/4/4 400/4/4 403/4/4
f 403/3/4 401/3/4 404/3/4
f 405/4/4 406/4/4 408/4/4
f 406/3/4 407/3/4 409/3/4
f 408/4/4 406/4/4 409/4/4
f 409/3/4 407/3/4 410/3/4
f 411/3/4 412/3/4 413/3/4
f 413/3/4 412/3/4 414/3/4
f 415/3/4 416/3/4 417/3/4
f 417/3/4 416/3/4 418/3/4
f 418/3/4 416/3/4 419/3/4
f 420/3/4 421/3/4 422/3/4
f 422/3/4 421/3/4 423/3/4
f 423/3/4 421/3/4 424/3/4
f 425/3/4 426/3/4 427/3/4
f 427/3/4 426/3/4 428/3/4
f 429/3/4 430/3/4 431/3/4
f 431/3/4 430/3/4 432/3/4
f 433/3/4 434/3/4 435/3/4
f 435/3/4 434/3/4 436/3/4
f 436/3/4 434/3/4 437/3/4
f 438/4/4 439/4/4 441/4/4
f 439/3/4 440/3/4 442/3/4
f 441/4/4 439/4/4 442/4/4
f 442/3/4 440/3/4 443/3/4
f 444/4/4 445/4/4 447/4/4
f 445/3/4 446/3/4 448/3/4
f 447/4/4 445/4/4 448/4/4
f 448/3/4 446/3/4 449/3/4
f 450/3/4 451/3/4 452/3/4
f 452/3/4 451/3/4 453/3/4
f 453/3/4 451/3/4 454/3/4
f 455/3/4 456/3/4 457/3/4
f 457/3/4 456/3/4 458/3/4
f 459/4/4 460/4/4 462/4/4
f 460/3/4 461/3/4 463/3/4
f 462/4/4 460/4/4 463/4/4
f 463/3/4 461/3/4 464/3/4
f 465/3/4 466/3/4 467/3/4
f 467/3/4 466/3/4 468/3/4
f 473/1/5 470/1/5 469/1/5
f 474/1/5 470/1/5 473/1/5
f 475/1/5 472/1/5 471/1/5
f 476/1/5 472/1/5 475/1/5
f 479/6/5 478/6/5 477/6/5
f 480/6/5 478/6/5 479/6/5
f 485/4/5 482/4/5 481/4/5
f 486/4/5 482/4/5 485/4/5
f 487/4/5 484/4/5 483/4/5
f 488/4/5 484/4/5 487/4/5
f 489/4/5 485/4/5 481/4/5
f 490/4/5 482/4/5 486/4/5
f 491/4/5 487/4/5 483/4/5
f 492/4/5 484/4/5 488/4/5
f 493/4/5 489/4/5 481/4/5
f 493/4/5 490/4/5 489/4/5
f 494/4/5 482/4/5 490/4/5
f 494/4/5 490/4/5 493/4/5
f 495/4/5 492/4/5 491/4/5
f 495/4/5 491/4/5 483/4/5
f 496/4/5 484/4/5 492/4/5
f 496/4/5 492/4/5 495/4/5
f 501/4/5 500/4/5 499/4/5
f 502/4/5 500/4/5 501/4/5
f 503/4/5 500/4/5 502/4/5
f 504/4/5 500/4/5 503/4/5
f 508/4/5 503/4/5 502/4/5
f 509/4/5 503/4/5 508/4/5
f 511/4/5 508/4/5 507/4/5
f 511/4/5 510/4/5 509/4/5
f 511/4/5 509/4/5 508/4/5
f 512/4/5 510/4/5 511/4/5
f 513/4/5 510/4/5 512/4/5
f 514/4/5 510/4/5 513/4/5
f 515/4/5 513/4/5 512/4/5
f 516/4/5 513/4/5 515/4/5
f 517/4/5 513/4/5 516/4/5
f 518/4/5 513/4/5 517/4/5
f 519/4/5 517/4/5 516/4/5
f 520/4/5 517/4/5 519/4/5
f 521/4/5 517/4/5 520/4/5
f 522/4/5 517/4/5 521/4/5
f 523/3/5 498/3/5 497/3/5
f 524/3/5 498/3/5 523/3/5
f 525/4/5 521/4/5 520/4/5
f 526/4/5 521/4/5 525/4/5
f 527/3/5 506/3/5 505/3/5
f 528/3/5 506/3/5 527/3/5
f 533/3/5 530/3/5 529/3/5
f 534/3/5 530/3/5 533/3/5
f 535/3/5 532/3/5 531/3/5
f 536/3/5 532/3/5 535/3/5
f 541/3/5 538/3/5 537/3/5
f 542/3/5 538/3/5 541/3/5
f 543/3/5 540/3/5 539/3/5
f 544/3/5 540/3/5 543/3/5
f 549/3/5 546/3/5 545/3/5
f 550/3/5 546/3/5 549/3/5
f 551/3/5 548/3/5 547/3/5
f 552/3/5 548/3/5 551/3/5
f 557/7/5 554/7/5 553/7/5
f 558/7/5 554/7/5 557/7/5
f 559/7/5 556/7/5 555/7/5
f 560/7/5 556/7/5 559/7/5
f 563/2/5 562/2/5 561/2/5
f 564/2/5 562/2/5 563/2/5
f 565/1/6 566/1/6 569/1/6
f 569/1/6 566/1/6 570/1/6
f 567/1/6 568/1/6 571/1/6
f 571/1/6 568/1/6 572/1/6
f 565/1/6 569/1/6 573/1/6
f 570/1/6 566/1/6 574/1/6
f 567/1/6 571/1/6 575/1/6
f 572/1/6 568/1/6 576/1/6
f 565/1/6 573/1/6 577/1/6
f 573/1/6 574/1/6 577/1/6
f 574/1/6 566/1/6 578/1/6
f 577/1/6 574/1/6 578/1/6
f 575/1/6 576/1/6 579/1/6
f 567/1/6 575/1/6 579/1/6
f 576/1/6 568/1/6 580/1/6
f 579/1/6 576/1/6 580/1/6
f 581/6/6 582/6/6 583/6/6
f 583/6/6 582/6/6 584/6/6
f 585/6/6 586/6/6 587/6/6
f 587/6/6 586/6/6 588/6/6
f 589/6/6 590/6/6 593/6/6
f 593/6/6 590/6/6 594/6/6
f 591/6/6 592/6/6 595/6/6
f 595/6/6 592/6/6 596/6/6
f 597/3/6 598/3/6 601/3/6
f 601/3/6 598/3/6 602/3/6
f 599/3/6 600/3/6 603/3/6
f 603/3/6 600/3/6 604/3/6
f 605/3/6 606/3/6 609/3/6
f 607/3/6 608/3/6 612/3/6
f 609/3/6 610/3/6 613/3/6
f 605/3/6 609/3/6 613/3/6
f 613/3/6 610/3/6 614/3/6
f 611/3/6 612/3/6 615/3/6
f 612/3/6 608/3/6 616/3/6
f 615/3/6 612/3/6 616/3/6
f 617/3/6 618/3/6 621/3/6
f 621/3/6 618/3/6 622/3/6
f 619/3/6 620/3/6 623/3/6
f 623/3/6 620/3/6 624/3/6
f 625/3/6 626/3/6 629/3/6
f 627/3/6 628/3/6 632/3/6
f 629/3/6 630/3/6 633/3/6
f 625/3/6 629/3/6 633/3/6
f 633/3/6 630/3/6 634/3/6
f 631/3/6 632/3/6 635/3/6
f 632/3/6 628/3/6 636/3/6
f 635/3/6 632/3/6 636/3/6
f 637/3/6 638/3/6 641/3/6
f 641/3/6 638/3/6 642/3/6
f 639/3/6 640/3/6 645/3/6
f 645/3/6 640/3/6 646/3/6
f 637/3/6 641/3/6 647/3/6
f 647/3/6 641/3/6 648/3/6
f 643/3/6 644/3/6 649/3/6
f 649/3/6 644/3/6 650/3/6
f 650/3/6 644/3/6 651/3/6
f 651/3/6 644/3/6 652/3/6
f 646/3/6 640/3/6 653/3/6
f 653/3/6 640/3/6 654/3/6
f 650/3/6 651/3/6 655/3/6
f 655/3/6 651/3/6 656/3/6
f 656/3/6 651/3/6 657/3/6
f 657/3/6 651/3/6 658/3/6
f 656/3/6 657/3/6 659/3/6
f 659/3/6 657/3/6 660/3/6
f 661/3/6 662/3/6 665/3/6
f 665/3/6 662/3/6 666/3/6
f 663/3/6 664/3/6 667/3/6
f 667/3/6 664/3/6 668/3/6
f 669/2/6 670/2/6 671/2/6
f 671/2/6 670/2/6 672/2/6
f 673/7/6 674/7/6 677/7/6
f 677/7/6 674/7/6 678/7/6
f 675/7/6 676/7/6 679/7/6
f 679/7/6 676/7/6 680/7/6
f 681/5/6 682/5/6 683/5/6
f 683/5/6 682/5/6 684/5/6
