# MagicaVoxel @ Ephtracy

# material
mtllib kurczak.mtl
usemtl palette

# normals
vn -1 0 0
vn 1 0 0
vn 0 0 1
vn 0 0 -1
vn 0 -1 0
vn 0 1 0

# texcoords
vt 0.0917969 0.5
vt 0.841797 0.5
vt 0.845703 0.5
vt 0.865234 0.5
vt 0.958984 0.5
vt 0.994141 0.5

# verts
v -13 7 7
v -13 7 -4
v -13 8 -3
v -13 8 -4
v -13 9 7
v -13 9 -3
v -12 9 7
v -12 9 -2
v -12 10 -1
v -12 10 -2
v -12 11 7
v -12 11 -1
v -11 11 7
v -11 11 -0
v -11 12 7
v -11 12 -0
v -9 0 7
v -9 0 3
v -9 1 7
v -9 1 3
v -9 6 6
v -9 6 2
v -9 7 7
v -9 7 6
v -9 7 2
v -9 7 1
v -9 11 7
v -9 11 1
v -9 12 7
v -9 12 1
v -9 14 7
v -9 14 1
v -8 0 3
v -8 0 2
v -8 1 5
v -8 1 3
v -8 1 2
v -8 6 5
v -8 6 3
v -8 7 1
v -8 7 -0
v -8 12 1
v -8 12 -0
v -7 7 -0
v -7 7 -3
v -7 12 -0
v -7 12 -3
v -7 14 7
v -7 14 1
v -7 17 7
v -7 17 6
v -7 18 7
v -7 18 6
v -7 19 7
v -7 19 1
v -6 0 7
v -6 0 5
v -6 1 7
v -6 1 5
v -6 7 -3
v -6 7 -4
v -6 12 -3
v -6 12 -4
v -5 15 8
v -5 15 7
v -5 16 9
v -5 16 8
v -5 16 7
v -5 17 9
v -5 17 7
v -5 19 7
v -5 19 1
v -5 20 6
v -5 20 5
v -5 20 4
v -5 20 3
v -5 20 2
v -5 20 1
v -5 21 7
v -5 21 6
v -5 21 5
v -5 21 4
v -5 21 3
v -5 21 2
v -4 0 7
v -4 0 3
v -4 1 7
v -4 1 3
v -4 6 6
v -4 6 2
v -4 7 6
v -4 7 2
v -3 0 3
v -3 0 2
v -3 1 5
v -3 1 3
v -3 1 2
v -3 6 5
v -3 6 3
v -1 0 7
v -1 0 5
v -1 1 7
v -1 1 5
v 1 10 7
v 1 10 -1
v 1 11 7
v 1 11 1
v 1 11 -0
v 1 11 -1
v 1 12 1
v 1 12 -0
v 2 3 8
v 2 3 5
v 2 6 8
v 2 6 7
v 2 6 6
v 2 6 5
v 2 7 7
v 2 7 6
v 2 8 7
v 2 8 -3
v 2 9 -2
v 2 9 -3
v 2 10 7
v 2 10 -1
v 2 10 -2
v 3 7 7
v 3 7 6
v 3 7 -4
v 3 8 7
v 3 8 -3
v 3 8 -4
v -12 7 7
v -12 7 -4
v -12 8 7
v -12 8 -3
v -12 8 -4
v -11 8 7
v -11 8 -3
v -11 9 -2
v -11 9 -3
v -11 10 7
v -11 10 -1
v -11 10 -2
v -10 10 7
v -10 10 -1
v -10 11 7
v -10 11 1
v -10 11 -0
v -10 11 -1
v -10 12 1
v -10 12 -0
v -8 0 7
v -8 0 5
v -8 1 7
v -8 1 5
v -6 0 3
v -6 0 2
v -6 1 5
v -6 1 3
v -6 1 2
v -6 6 5
v -6 6 3
v -5 0 7
v -5 0 3
v -5 1 7
v -5 1 3
v -5 6 6
v -5 6 2
v -5 7 6
v -5 7 2
v -4 15 8
v -4 15 7
v -4 16 9
v -4 16 8
v -4 16 7
v -4 17 9
v -4 17 7
v -4 19 7
v -4 19 1
v -4 20 6
v -4 20 5
v -4 20 4
v -4 20 3
v -4 20 2
v -4 20 1
v -4 21 7
v -4 21 6
v -4 21 5
v -4 21 4
v -4 21 3
v -4 21 2
v -3 0 7
v -3 0 5
v -3 1 7
v -3 1 5
v -3 7 -3
v -3 7 -4
v -3 12 -3
v -3 12 -4
v -2 7 -0
v -2 7 -3
v -2 12 -0
v -2 12 -3
v -2 14 7
v -2 14 1
v -2 17 7
v -2 17 6
v -2 18 7
v -2 18 6
v -2 19 7
v -2 19 1
v -1 0 3
v -1 0 2
v -1 1 5
v -1 1 3
v -1 1 2
v -1 6 5
v -1 6 3
v -1 7 1
v -1 7 -0
v -1 12 1
v -1 12 -0
v 0 0 7
v 0 0 3
v 0 1 7
v 0 1 3
v 0 6 6
v 0 6 2
v 0 7 7
v 0 7 6
v 0 7 2
v 0 7 1
v 0 11 7
v 0 11 1
v 0 12 7
v 0 12 1
v 0 14 7
v 0 14 1
v 2 11 7
v 2 11 -0
v 2 12 7
v 2 12 -0
v 3 9 7
v 3 9 -2
v 3 10 -1
v 3 10 -2
v 3 11 7
v 3 11 -1
v 4 7 7
v 4 7 6
v 4 7 -4
v 4 8 -3
v 4 8 -4
v 4 9 7
v 4 9 -3
v 5 3 8
v 5 3 5
v 5 6 8
v 5 6 7
v 5 6 6
v 5 6 5
v 5 7 7
v 5 7 6
v -5 16 9
v -5 17 9
v -4 16 9
v -4 17 9
v -5 15 8
v -5 16 8
v -4 15 8
v -4 16 8
v 2 3 8
v 2 6 8
v 5 3 8
v 5 6 8
v -13 7 7
v -13 9 7
v -12 7 7
v -12 8 7
v -12 9 7
v -12 11 7
v -11 8 7
v -11 10 7
v -11 11 7
v -11 12 7
v -10 10 7
v -10 11 7
v -9 0 7
v -9 1 7
v -9 7 7
v -9 11 7
v -9 12 7
v -9 14 7
v -8 0 7
v -8 1 7
v -7 14 7
v -7 17 7
v -7 18 7
v -7 19 7
v -6 0 7
v -6 1 7
v -6 17 7
v -6 18 7
v -5 0 7
v -5 1 7
v -5 15 7
v -5 16 7
v -5 17 7
v -5 19 7
v -5 21 7
v -4 0 7
v -4 1 7
v -4 15 7
v -4 16 7
v -4 17 7
v -4 19 7
v -4 21 7
v -3 0 7
v -3 1 7
v -3 17 7
v -3 18 7
v -2 14 7
v -2 17 7
v -2 18 7
v -2 19 7
v -1 0 7
v -1 1 7
v 0 0 7
v 0 1 7
v 0 7 7
v 0 11 7
v 0 12 7
v 0 14 7
v 1 10 7
v 1 11 7
v 2 6 7
v 2 7 7
v 2 8 7
v 2 10 7
v 2 11 7
v 2 12 7
v 3 7 7
v 3 8 7
v 3 9 7
v 3 11 7
v 4 7 7
v 4 9 7
v 5 6 7
v 5 7 7
v -9 6 6
v -9 7 6
v -5 6 6
v -5 7 6
v -4 6 6
v -4 7 6
v 0 6 6
v 0 7 6
v -8 0 5
v -8 1 5
v -8 6 5
v -6 0 5
v -6 1 5
v -6 6 5
v -5 20 5
v -5 21 5
v -4 20 5
v -4 21 5
v -3 0 5
v -3 1 5
v -3 6 5
v -1 0 5
v -1 1 5
v -1 6 5
v -5 20 3
v -5 21 3
v -4 20 3
v -4 21 3
v -5 20 6
v -5 21 6
v -4 20 6
v -4 21 6
v 2 6 6
v 2 7 6
v 3 7 6
v 4 7 6
v 5 6 6
v 5 7 6
v 2 3 5
v 2 6 5
v 5 3 5
v 5 6 5
v -5 20 4
v -5 21 4
v -4 20 4
v -4 21 4
v -9 0 3
v -9 1 3
v -8 0 3
v -8 1 3
v -8 6 3
v -6 0 3
v -6 1 3
v -6 6 3
v -5 0 3
v -5 1 3
v -4 0 3
v -4 1 3
v -3 0 3
v -3 1 3
v -3 6 3
v -1 0 3
v -1 1 3
v -1 6 3
v 0 0 3
v 0 1 3
v -9 6 2
v -9 7 2
v -8 0 2
v -8 1 2
v -6 0 2
v -6 1 2
v -5 6 2
v -5 7 2
v -5 20 2
v -5 21 2
v -4 6 2
v -4 7 2
v -4 20 2
v -4 21 2
v -3 0 2
v -3 1 2
v -1 0 2
v -1 1 2
v 0 6 2
v 0 7 2
v -10 11 1
v -10 12 1
v -9 7 1
v -9 11 1
v -9 12 1
v -9 14 1
v -8 7 1
v -8 12 1
v -7 14 1
v -7 19 1
v -5 19 1
v -5 20 1
v -4 19 1
v -4 20 1
v -2 14 1
v -2 19 1
v -1 7 1
v -1 12 1
v 0 7 1
v 0 11 1
v 0 12 1
v 0 14 1
v 1 11 1
v 1 12 1
v -11 11 -0
v -11 12 -0
v -10 11 -0
v -10 12 -0
v -8 7 -0
v -8 12 -0
v -7 7 -0
v -7 12 -0
v -2 7 -0
v -2 12 -0
v -1 7 -0
v -1 12 -0
v 1 11 -0
v 1 12 -0
v 2 11 -0
v 2 12 -0
v -12 10 -1
v -12 11 -1
v -11 10 -1
v -10 10 -1
v -10 11 -1
v 1 10 -1
v 1 11 -1
v 2 10 -1
v 3 10 -1
v 3 11 -1
v -12 9 -2
v -12 10 -2
v -11 9 -2
v -11 10 -2
v 2 9 -2
v 2 10 -2
v 3 9 -2
v 3 10 -2
v -13 8 -3
v -13 9 -3
v -12 8 -3
v -11 8 -3
v -11 9 -3
v -7 7 -3
v -7 12 -3
v -6 7 -3
v -6 12 -3
v -3 7 -3
v -3 12 -3
v -2 7 -3
v -2 12 -3
v 2 8 -3
v 2 9 -3
v 3 8 -3
v 4 8 -3
v 4 9 -3
v -13 7 -4
v -13 8 -4
v -12 7 -4
v -12 8 -4
v -6 7 -4
v -6 12 -4
v -3 7 -4
v -3 12 -4
v 3 7 -4
v 3 8 -4
v 4 7 -4
v 4 8 -4
v -9 0 7
v -8 0 7
v -6 0 7
v -5 0 7
v -4 0 7
v -3 0 7
v -1 0 7
v 0 0 7
v -8 0 5
v -6 0 5
v -3 0 5
v -1 0 5
v -9 0 3
v -8 0 3
v -6 0 3
v -5 0 3
v -4 0 3
v -3 0 3
v -1 0 3
v 0 0 3
v -8 0 2
v -6 0 2
v -3 0 2
v -1 0 2
v 2 3 8
v 5 3 8
v 2 3 5
v 5 3 5
v -9 6 6
v -5 6 6
v -4 6 6
v 0 6 6
v -8 6 5
v -6 6 5
v -3 6 5
v -1 6 5
v -8 6 3
v -6 6 3
v -3 6 3
v -1 6 3
v -9 6 2
v -5 6 2
v -4 6 2
v 0 6 2
v -13 7 7
v -12 7 7
v -9 7 7
v 0 7 7
v -9 7 6
v -5 7 6
v -4 7 6
v 0 7 6
v 3 7 6
v 4 7 6
v -9 7 2
v -5 7 2
v -4 7 2
v 0 7 2
v -9 7 1
v -8 7 1
v -1 7 1
v 0 7 1
v -8 7 -0
v -7 7 -0
v -2 7 -0
v -1 7 -0
v -7 7 -3
v -6 7 -3
v -3 7 -3
v -2 7 -3
v -13 7 -4
v -12 7 -4
v -6 7 -4
v -3 7 -4
v 3 7 -4
v 4 7 -4
v -12 8 7
v -11 8 7
v 2 8 7
v 3 8 7
v -12 8 -3
v -11 8 -3
v 2 8 -3
v 3 8 -3
v -11 10 7
v -10 10 7
v 1 10 7
v 2 10 7
v -11 10 -1
v -10 10 -1
v 1 10 -1
v 2 10 -1
v -10 11 7
v -9 11 7
v 0 11 7
v 1 11 7
v -10 11 1
v -9 11 1
v 0 11 1
v 1 11 1
v -5 15 8
v -4 15 8
v -5 15 7
v -4 15 7
v -5 16 9
v -4 16 9
v -5 16 8
v -4 16 8
v -9 1 7
v -8 1 7
v -6 1 7
v -5 1 7
v -4 1 7
v -3 1 7
v -1 1 7
v 0 1 7
v -8 1 5
v -6 1 5
v -3 1 5
v -1 1 5
v -9 1 3
v -8 1 3
v -6 1 3
v -5 1 3
v -4 1 3
v -3 1 3
v -1 1 3
v 0 1 3
v -8 1 2
v -6 1 2
v -3 1 2
v -1 1 2
v 2 6 8
v 5 6 8
v 2 6 7
v 5 6 7
v 2 6 6
v 5 6 6
v 2 6 5
v 5 6 5
v 2 7 7
v 3 7 7
v 4 7 7
v 5 7 7
v 2 7 6
v 3 7 6
v 4 7 6
v 5 7 6
v -13 8 -3
v -12 8 -3
v 3 8 -3
v 4 8 -3
v -13 8 -4
v -12 8 -4
v 3 8 -4
v 4 8 -4
v -13 9 7
v -12 9 7
v 3 9 7
v 4 9 7
v -12 9 -2
v -11 9 -2
v 2 9 -2
v 3 9 -2
v -13 9 -3
v -11 9 -3
v 2 9 -3
v 4 9 -3
v -12 10 -1
v -11 10 -1
v 2 10 -1
v 3 10 -1
v -12 10 -2
v -11 10 -2
v 2 10 -2
v 3 10 -2
v -12 11 7
v -11 11 7
v 2 11 7
v 3 11 7
v -11 11 -0
v -10 11 -0
v 1 11 -0
v 2 11 -0
v -12 11 -1
v -10 11 -1
v 1 11 -1
v 3 11 -1
v -11 12 7
v -9 12 7
v 0 12 7
v 2 12 7
v -10 12 1
v -9 12 1
v -8 12 1
v -1 12 1
v 0 12 1
v 1 12 1
v -11 12 -0
v -10 12 -0
v -8 12 -0
v -7 12 -0
v -2 12 -0
v -1 12 -0
v 1 12 -0
v 2 12 -0
v -7 12 -3
v -6 12 -3
v -3 12 -3
v -2 12 -3
v -6 12 -4
v -3 12 -4
v -9 14 7
v -7 14 7
v -2 14 7
v 0 14 7
v -9 14 1
v -7 14 1
v -2 14 1
v 0 14 1
v -5 17 9
v -4 17 9
v -5 17 7
v -4 17 7
v -7 19 7
v -5 19 7
v -4 19 7
v -2 19 7
v -7 19 1
v -5 19 1
v -4 19 1
v -2 19 1
v -5 20 6
v -4 20 6
v -5 20 5
v -4 20 5
v -5 20 4
v -4 20 4
v -5 20 3
v -4 20 3
v -5 20 2
v -4 20 2
v -5 20 1
v -4 20 1
v -5 21 7
v -4 21 7
v -5 21 6
v -4 21 6
v -5 21 5
v -4 21 5
v -5 21 4
v -4 21 4
v -5 21 3
v -4 21 3
v -5 21 2
v -4 21 2

# faces
f 3/5/1 2/5/1 1/5/1
f 4/5/1 2/5/1 3/5/1
f 5/5/1 3/5/1 1/5/1
f 6/5/1 3/5/1 5/5/1
f 9/5/1 8/5/1 7/5/1
f 10/5/1 8/5/1 9/5/1
f 11/5/1 9/5/1 7/5/1
f 12/5/1 9/5/1 11/5/1
f 15/5/1 14/5/1 13/5/1
f 16/5/1 14/5/1 15/5/1
f 19/1/1 18/1/1 17/1/1
f 20/1/1 18/1/1 19/1/1
f 24/5/1 22/5/1 21/5/1
f 25/5/1 22/5/1 24/5/1
f 27/5/1 24/5/1 23/5/1
f 27/5/1 26/5/1 25/5/1
f 27/5/1 25/5/1 24/5/1
f 28/5/1 26/5/1 27/5/1
f 31/5/1 30/5/1 29/5/1
f 32/5/1 30/5/1 31/5/1
f 36/1/1 34/1/1 33/1/1
f 37/1/1 34/1/1 36/1/1
f 38/1/1 36/1/1 35/1/1
f 39/1/1 36/1/1 38/1/1
f 42/5/1 41/5/1 40/5/1
f 43/5/1 41/5/1 42/5/1
f 46/5/1 45/5/1 44/5/1
f 47/5/1 45/5/1 46/5/1
f 50/5/1 49/5/1 48/5/1
f 51/5/1 49/5/1 50/5/1
f 52/6/1 51/6/1 50/6/1
f 53/5/1 49/5/1 51/5/1
f 53/6/1 51/6/1 52/6/1
f 54/5/1 53/5/1 52/5/1
f 55/5/1 49/5/1 53/5/1
f 55/5/1 53/5/1 54/5/1
f 58/1/1 57/1/1 56/1/1
f 59/1/1 57/1/1 58/1/1
f 62/5/1 61/5/1 60/5/1
f 63/5/1 61/5/1 62/5/1
f 67/3/1 65/3/1 64/3/1
f 68/3/1 65/3/1 67/3/1
f 69/1/1 67/1/1 66/1/1
f 69/1/1 68/1/1 67/1/1
f 70/1/1 68/1/1 69/1/1
f 73/2/1 72/2/1 71/2/1
f 74/2/1 72/2/1 73/2/1
f 75/2/1 72/2/1 74/2/1
f 76/2/1 72/2/1 75/2/1
f 77/2/1 72/2/1 76/2/1
f 78/2/1 72/2/1 77/2/1
f 79/2/1 73/2/1 71/2/1
f 80/2/1 73/2/1 79/2/1
f 81/2/1 75/2/1 74/2/1
f 82/2/1 75/2/1 81/2/1
f 83/2/1 77/2/1 76/2/1
f 84/2/1 77/2/1 83/2/1
f 87/1/1 86/1/1 85/1/1
f 88/1/1 86/1/1 87/1/1
f 91/5/1 90/5/1 89/5/1
f 92/5/1 90/5/1 91/5/1
f 96/1/1 94/1/1 93/1/1
f 97/1/1 94/1/1 96/1/1
f 98/1/1 96/1/1 95/1/1
f 99/1/1 96/1/1 98/1/1
f 102/1/1 101/1/1 100/1/1
f 103/1/1 101/1/1 102/1/1
f 106/5/1 105/5/1 104/5/1
f 107/5/1 105/5/1 106/5/1
f 108/5/1 105/5/1 107/5/1
f 109/5/1 105/5/1 108/5/1
f 110/5/1 108/5/1 107/5/1
f 111/5/1 108/5/1 110/5/1
f 114/4/1 113/4/1 112/4/1
f 115/4/1 113/4/1 114/4/1
f 116/4/1 113/4/1 115/4/1
f 117/4/1 113/4/1 116/4/1
f 118/4/1 116/4/1 115/4/1
f 119/4/1 116/4/1 118/4/1
f 122/5/1 121/5/1 120/5/1
f 123/5/1 121/5/1 122/5/1
f 124/5/1 122/5/1 120/5/1
f 125/5/1 122/5/1 124/5/1
f 126/5/1 122/5/1 125/5/1
f 130/5/1 128/5/1 127/5/1
f 130/5/1 129/5/1 128/5/1
f 131/5/1 129/5/1 130/5/1
f 132/5/1 129/5/1 131/5/1
f 133/5/2 134/5/2 135/5/2
f 135/5/2 134/5/2 136/5/2
f 136/5/2 134/5/2 137/5/2
f 138/5/2 139/5/2 140/5/2
f 140/5/2 139/5/2 141/5/2
f 138/5/2 140/5/2 142/5/2
f 142/5/2 140/5/2 143/5/2
f 143/5/2 140/5/2 144/5/2
f 145/5/2 146/5/2 147/5/2
f 147/5/2 146/5/2 148/5/2
f 148/5/2 146/5/2 149/5/2
f 149/5/2 146/5/2 150/5/2
f 148/5/2 149/5/2 151/5/2
f 151/5/2 149/5/2 152/5/2
f 153/1/2 154/1/2 155/1/2
f 155/1/2 154/1/2 156/1/2
f 157/1/2 158/1/2 160/1/2
f 160/1/2 158/1/2 161/1/2
f 159/1/2 160/1/2 162/1/2
f 162/1/2 160/1/2 163/1/2
f 164/1/2 165/1/2 166/1/2
f 166/1/2 165/1/2 167/1/2
f 168/5/2 169/5/2 170/5/2
f 170/5/2 169/5/2 171/5/2
f 172/3/2 173/3/2 175/3/2
f 175/3/2 173/3/2 176/3/2
f 174/1/2 175/1/2 177/1/2
f 175/1/2 176/1/2 177/1/2
f 177/1/2 176/1/2 178/1/2
f 179/2/2 180/2/2 181/2/2
f 181/2/2 180/2/2 182/2/2
f 182/2/2 180/2/2 183/2/2
f 183/2/2 180/2/2 184/2/2
f 184/2/2 180/2/2 185/2/2
f 185/2/2 180/2/2 186/2/2
f 179/2/2 181/2/2 187/2/2
f 187/2/2 181/2/2 188/2/2
f 182/2/2 183/2/2 189/2/2
f 189/2/2 183/2/2 190/2/2
f 184/2/2 185/2/2 191/2/2
f 191/2/2 185/2/2 192/2/2
f 193/1/2 194/1/2 195/1/2
f 195/1/2 194/1/2 196/1/2
f 197/5/2 198/5/2 199/5/2
f 199/5/2 198/5/2 200/5/2
f 201/5/2 202/5/2 203/5/2
f 203/5/2 202/5/2 204/5/2
f 205/5/2 206/5/2 207/5/2
f 207/5/2 206/5/2 208/5/2
f 207/6/2 208/6/2 209/6/2
f 208/5/2 206/5/2 210/5/2
f 209/6/2 208/6/2 210/6/2
f 209/5/2 210/5/2 211/5/2
f 210/5/2 206/5/2 212/5/2
f 211/5/2 210/5/2 212/5/2
f 213/1/2 214/1/2 216/1/2
f 216/1/2 214/1/2 217/1/2
f 215/1/2 216/1/2 218/1/2
f 218/1/2 216/1/2 219/1/2
f 220/5/2 221/5/2 222/5/2
f 222/5/2 221/5/2 223/5/2
f 224/1/2 225/1/2 226/1/2
f 226/1/2 225/1/2 227/1/2
f 228/5/2 229/5/2 231/5/2
f 231/5/2 229/5/2 232/5/2
f 230/5/2 231/5/2 234/5/2
f 232/5/2 233/5/2 234/5/2
f 231/5/2 232/5/2 234/5/2
f 234/5/2 233/5/2 235/5/2
f 236/5/2 237/5/2 238/5/2
f 238/5/2 237/5/2 239/5/2
f 240/5/2 241/5/2 242/5/2
f 242/5/2 241/5/2 243/5/2
f 244/5/2 245/5/2 246/5/2
f 246/5/2 245/5/2 247/5/2
f 244/5/2 246/5/2 248/5/2
f 248/5/2 246/5/2 249/5/2
f 250/5/2 251/5/2 253/5/2
f 251/5/2 252/5/2 253/5/2
f 253/5/2 252/5/2 254/5/2
f 250/5/2 253/5/2 255/5/2
f 255/5/2 253/5/2 256/5/2
f 257/4/2 258/4/2 259/4/2
f 259/4/2 258/4/2 260/4/2
f 260/4/2 258/4/2 261/4/2
f 261/4/2 258/4/2 262/4/2
f 260/4/2 261/4/2 263/4/2
f 263/4/2 261/4/2 264/4/2
f 267/1/3 266/1/3 265/1/3
f 268/1/3 266/1/3 267/1/3
f 271/3/3 270/3/3 269/3/3
f 272/3/3 270/3/3 271/3/3
f 275/4/3 274/4/3 273/4/3
f 276/4/3 274/4/3 275/4/3
f 279/5/3 278/5/3 277/5/3
f 280/5/3 278/5/3 279/5/3
f 281/5/3 278/5/3 280/5/3
f 283/5/3 282/5/3 281/5/3
f 283/5/3 281/5/3 280/5/3
f 284/5/3 282/5/3 283/5/3
f 285/5/3 282/5/3 284/5/3
f 287/5/3 286/5/3 285/5/3
f 287/5/3 285/5/3 284/5/3
f 288/5/3 286/5/3 287/5/3
f 292/5/3 286/5/3 288/5/3
f 293/5/3 286/5/3 292/5/3
f 295/1/3 290/1/3 289/1/3
f 296/1/3 290/1/3 295/1/3
f 297/5/3 294/5/3 293/5/3
f 297/5/3 292/5/3 291/5/3
f 297/5/3 293/5/3 292/5/3
f 303/5/3 298/5/3 297/5/3
f 303/6/3 299/6/3 298/6/3
f 304/5/3 300/5/3 299/5/3
f 304/6/3 299/6/3 303/6/3
f 305/1/3 302/1/3 301/1/3
f 306/1/3 302/1/3 305/1/3
f 307/5/3 303/5/3 297/5/3
f 307/5/3 304/5/3 303/5/3
f 308/5/3 304/5/3 307/5/3
f 309/5/3 304/5/3 308/5/3
f 310/5/3 300/5/3 304/5/3
f 310/5/3 304/5/3 309/5/3
f 314/5/3 307/5/3 297/5/3
f 316/5/3 310/5/3 309/5/3
f 317/2/3 311/2/3 310/2/3
f 317/5/3 310/5/3 316/5/3
f 318/2/3 311/2/3 317/2/3
f 319/1/3 313/1/3 312/1/3
f 320/1/3 313/1/3 319/1/3
f 321/5/3 316/5/3 315/5/3
f 321/5/3 315/5/3 314/5/3
f 321/5/3 317/5/3 316/5/3
f 322/5/3 317/5/3 321/5/3
f 323/5/3 297/5/3 291/5/3
f 323/5/3 314/5/3 297/5/3
f 323/5/3 321/5/3 314/5/3
f 324/6/3 322/6/3 321/6/3
f 324/5/3 321/5/3 323/5/3
f 325/5/3 317/5/3 322/5/3
f 325/6/3 322/6/3 324/6/3
f 326/5/3 317/5/3 325/5/3
f 329/1/3 328/1/3 327/1/3
f 330/1/3 328/1/3 329/1/3
f 331/5/3 323/5/3 291/5/3
f 332/5/3 323/5/3 331/5/3
f 333/5/3 323/5/3 332/5/3
f 334/5/3 323/5/3 333/5/3
f 336/5/3 333/5/3 332/5/3
f 340/5/3 336/5/3 335/5/3
f 341/5/3 333/5/3 336/5/3
f 341/5/3 336/5/3 340/5/3
f 342/5/3 333/5/3 341/5/3
f 343/4/3 338/4/3 337/4/3
f 344/5/3 340/5/3 339/5/3
f 344/5/3 341/5/3 340/5/3
f 345/5/3 341/5/3 344/5/3
f 346/5/3 341/5/3 345/5/3
f 347/4/3 343/4/3 337/4/3
f 347/5/3 344/5/3 343/5/3
f 347/5/3 345/5/3 344/5/3
f 348/5/3 345/5/3 347/5/3
f 349/4/3 347/4/3 337/4/3
f 350/4/3 347/4/3 349/4/3
f 353/5/3 352/5/3 351/5/3
f 354/5/3 352/5/3 353/5/3
f 357/5/3 356/5/3 355/5/3
f 358/5/3 356/5/3 357/5/3
f 362/1/3 360/1/3 359/1/3
f 362/1/3 361/1/3 360/1/3
f 363/1/3 361/1/3 362/1/3
f 364/1/3 361/1/3 363/1/3
f 367/2/3 366/2/3 365/2/3
f 368/2/3 366/2/3 367/2/3
f 372/1/3 370/1/3 369/1/3
f 372/1/3 371/1/3 370/1/3
f 373/1/3 371/1/3 372/1/3
f 374/1/3 371/1/3 373/1/3
f 377/2/3 376/2/3 375/2/3
f 378/2/3 376/2/3 377/2/3
f 379/2/4 380/2/4 381/2/4
f 381/2/4 380/2/4 382/2/4
f 383/4/4 384/4/4 385/4/4
f 383/4/4 385/4/4 386/4/4
f 383/4/4 386/4/4 387/4/4
f 387/4/4 386/4/4 388/4/4
f 389/4/4 390/4/4 391/4/4
f 391/4/4 390/4/4 392/4/4
f 393/2/4 394/2/4 395/2/4
f 395/2/4 394/2/4 396/2/4
f 397/1/4 398/1/4 399/1/4
f 399/1/4 398/1/4 400/1/4
f 400/1/4 401/1/4 403/1/4
f 403/1/4 401/1/4 404/1/4
f 402/1/4 403/1/4 405/1/4
f 405/1/4 403/1/4 406/1/4
f 407/1/4 408/1/4 409/1/4
f 409/1/4 408/1/4 410/1/4
f 410/1/4 411/1/4 413/1/4
f 413/1/4 411/1/4 414/1/4
f 412/1/4 413/1/4 415/1/4
f 415/1/4 413/1/4 416/1/4
f 419/1/4 420/1/4 421/1/4
f 421/1/4 420/1/4 422/1/4
f 417/5/4 418/5/4 423/5/4
f 423/5/4 418/5/4 424/5/4
f 425/2/4 426/2/4 429/2/4
f 429/2/4 426/2/4 430/2/4
f 431/1/4 432/1/4 433/1/4
f 433/1/4 432/1/4 434/1/4
f 427/5/4 428/5/4 435/5/4
f 435/5/4 428/5/4 436/5/4
f 437/5/4 438/5/4 440/5/4
f 440/5/4 438/5/4 441/5/4
f 439/5/4 440/5/4 443/5/4
f 441/5/4 442/5/4 443/5/4
f 440/5/4 441/5/4 443/5/4
f 443/5/4 442/5/4 444/5/4
f 444/5/4 442/5/4 445/5/4
f 445/5/4 446/5/4 447/5/4
f 445/5/4 447/5/4 449/5/4
f 447/2/4 448/2/4 449/2/4
f 449/2/4 448/2/4 450/2/4
f 444/5/4 445/5/4 451/5/4
f 445/5/4 449/5/4 451/5/4
f 451/5/4 449/5/4 452/5/4
f 444/5/4 451/5/4 454/5/4
f 453/5/4 454/5/4 455/5/4
f 455/5/4 454/5/4 456/5/4
f 454/5/4 451/5/4 457/5/4
f 456/5/4 454/5/4 457/5/4
f 457/5/4 451/5/4 458/5/4
f 456/5/4 457/5/4 459/5/4
f 459/5/4 457/5/4 460/5/4
f 461/5/4 462/5/4 463/5/4
f 463/5/4 462/5/4 464/5/4
f 465/5/4 466/5/4 467/5/4
f 467/5/4 466/5/4 468/5/4
f 469/5/4 470/5/4 471/5/4
f 471/5/4 470/5/4 472/5/4
f 473/5/4 474/5/4 475/5/4
f 475/5/4 474/5/4 476/5/4
f 477/5/4 478/5/4 479/5/4
f 479/5/4 478/5/4 480/5/4
f 480/5/4 478/5/4 481/5/4
f 482/5/4 483/5/4 484/5/4
f 484/5/4 483/5/4 485/5/4
f 485/5/4 483/5/4 486/5/4
f 487/5/4 488/5/4 489/5/4
f 489/5/4 488/5/4 490/5/4
f 491/5/4 492/5/4 493/5/4
f 493/5/4 492/5/4 494/5/4
f 495/5/4 496/5/4 497/5/4
f 497/5/4 496/5/4 498/5/4
f 498/5/4 496/5/4 499/5/4
f 500/5/4 501/5/4 502/5/4
f 502/5/4 501/5/4 503/5/4
f 504/5/4 505/5/4 506/5/4
f 506/5/4 505/5/4 507/5/4
f 508/5/4 509/5/4 510/5/4
f 510/5/4 509/5/4 511/5/4
f 511/5/4 509/5/4 512/5/4
f 513/5/4 514/5/4 515/5/4
f 515/5/4 514/5/4 516/5/4
f 517/5/4 518/5/4 519/5/4
f 519/5/4 518/5/4 520/5/4
f 521/5/4 522/5/4 523/5/4
f 523/5/4 522/5/4 524/5/4
f 533/1/5 526/1/5 525/1/5
f 534/1/5 528/1/5 527/1/5
f 535/1/5 530/1/5 529/1/5
f 536/1/5 532/1/5 531/1/5
f 537/1/5 533/1/5 525/1/5
f 537/1/5 534/1/5 533/1/5
f 538/1/5 534/1/5 537/1/5
f 539/1/5 528/1/5 534/1/5
f 539/1/5 534/1/5 538/1/5
f 540/1/5 528/1/5 539/1/5
f 541/1/5 535/1/5 529/1/5
f 541/1/5 536/1/5 535/1/5
f 542/1/5 536/1/5 541/1/5
f 543/1/5 532/1/5 536/1/5
f 543/1/5 536/1/5 542/1/5
f 544/1/5 532/1/5 543/1/5
f 545/1/5 539/1/5 538/1/5
f 546/1/5 539/1/5 545/1/5
f 547/1/5 543/1/5 542/1/5
f 548/1/5 543/1/5 547/1/5
f 551/4/5 550/4/5 549/4/5
f 552/4/5 550/4/5 551/4/5
f 557/5/5 554/5/5 553/5/5
f 558/5/5 554/5/5 557/5/5
f 559/5/5 556/5/5 555/5/5
f 560/5/5 556/5/5 559/5/5
f 561/5/5 557/5/5 553/5/5
f 562/5/5 554/5/5 558/5/5
f 563/5/5 559/5/5 555/5/5
f 564/5/5 556/5/5 560/5/5
f 565/5/5 561/5/5 553/5/5
f 565/5/5 562/5/5 561/5/5
f 566/5/5 554/5/5 562/5/5
f 566/5/5 562/5/5 565/5/5
f 567/5/5 564/5/5 563/5/5
f 567/5/5 563/5/5 555/5/5
f 568/5/5 556/5/5 564/5/5
f 568/5/5 564/5/5 567/5/5
f 573/5/5 572/5/5 571/5/5
f 574/5/5 572/5/5 573/5/5
f 575/5/5 572/5/5 574/5/5
f 576/5/5 572/5/5 575/5/5
f 580/5/5 575/5/5 574/5/5
f 581/5/5 575/5/5 580/5/5
f 583/5/5 580/5/5 579/5/5
f 583/5/5 582/5/5 581/5/5
f 583/5/5 581/5/5 580/5/5
f 584/5/5 582/5/5 583/5/5
f 585/5/5 582/5/5 584/5/5
f 586/5/5 582/5/5 585/5/5
f 587/5/5 585/5/5 584/5/5
f 588/5/5 585/5/5 587/5/5
f 589/5/5 585/5/5 588/5/5
f 590/5/5 585/5/5 589/5/5
f 591/5/5 589/5/5 588/5/5
f 592/5/5 589/5/5 591/5/5
f 593/5/5 589/5/5 592/5/5
f 594/5/5 589/5/5 593/5/5
f 595/5/5 570/5/5 569/5/5
f 596/5/5 570/5/5 595/5/5
f 597/5/5 593/5/5 592/5/5
f 598/5/5 593/5/5 597/5/5
f 599/5/5 578/5/5 577/5/5
f 600/5/5 578/5/5 599/5/5
f 605/5/5 602/5/5 601/5/5
f 606/5/5 602/5/5 605/5/5
f 607/5/5 604/5/5 603/5/5
f 608/5/5 604/5/5 607/5/5
f 613/5/5 610/5/5 609/5/5
f 614/5/5 610/5/5 613/5/5
f 615/5/5 612/5/5 611/5/5
f 616/5/5 612/5/5 615/5/5
f 621/5/5 618/5/5 617/5/5
f 622/5/5 618/5/5 621/5/5
f 623/5/5 620/5/5 619/5/5
f 624/5/5 620/5/5 623/5/5
f 627/3/5 626/3/5 625/3/5
f 628/3/5 626/3/5 627/3/5
f 631/1/5 630/1/5 629/1/5
f 632/1/5 630/1/5 631/1/5
f 633/1/6 634/1/6 641/1/6
f 635/1/6 636/1/6 642/1/6
f 637/1/6 638/1/6 643/1/6
f 639/1/6 640/1/6 644/1/6
f 633/1/6 641/1/6 645/1/6
f 645/1/6 641/1/6 646/1/6
f 642/1/6 636/1/6 647/1/6
f 647/1/6 636/1/6 648/1/6
f 637/1/6 643/1/6 649/1/6
f 649/1/6 643/1/6 650/1/6
f 644/1/6 640/1/6 651/1/6
f 651/1/6 640/1/6 652/1/6
f 646/1/6 647/1/6 653/1/6
f 653/1/6 647/1/6 654/1/6
f 650/1/6 651/1/6 655/1/6
f 655/1/6 651/1/6 656/1/6
f 657/4/6 658/4/6 659/4/6
f 659/4/6 658/4/6 660/4/6
f 661/4/6 662/4/6 663/4/6
f 663/4/6 662/4/6 664/4/6
f 665/4/6 666/4/6 669/4/6
f 669/4/6 666/4/6 670/4/6
f 667/4/6 668/4/6 671/4/6
f 671/4/6 668/4/6 672/4/6
f 673/5/6 674/5/6 677/5/6
f 677/5/6 674/5/6 678/5/6
f 675/5/6 676/5/6 679/5/6
f 679/5/6 676/5/6 680/5/6
f 681/5/6 682/5/6 685/5/6
f 683/5/6 684/5/6 688/5/6
f 685/5/6 686/5/6 689/5/6
f 681/5/6 685/5/6 689/5/6
f 689/5/6 686/5/6 690/5/6
f 687/5/6 688/5/6 691/5/6
f 688/5/6 684/5/6 692/5/6
f 691/5/6 688/5/6 692/5/6
f 693/5/6 694/5/6 697/5/6
f 697/5/6 694/5/6 698/5/6
f 695/5/6 696/5/6 699/5/6
f 699/5/6 696/5/6 700/5/6
f 701/5/6 702/5/6 705/5/6
f 703/5/6 704/5/6 708/5/6
f 705/5/6 706/5/6 709/5/6
f 701/5/6 705/5/6 709/5/6
f 709/5/6 706/5/6 710/5/6
f 707/5/6 708/5/6 711/5/6
f 708/5/6 704/5/6 712/5/6
f 711/5/6 708/5/6 712/5/6
f 713/5/6 714/5/6 717/5/6
f 717/5/6 714/5/6 718/5/6
f 715/5/6 716/5/6 721/5/6
f 721/5/6 716/5/6 722/5/6
f 713/5/6 717/5/6 723/5/6
f 723/5/6 717/5/6 724/5/6
f 719/5/6 720/5/6 725/5/6
f 725/5/6 720/5/6 726/5/6
f 726/5/6 720/5/6 727/5/6
f 727/5/6 720/5/6 728/5/6
f 722/5/6 716/5/6 729/5/6
f 729/5/6 716/5/6 730/5/6
f 726/5/6 727/5/6 731/5/6
f 731/5/6 727/5/6 732/5/6
f 732/5/6 727/5/6 733/5/6
f 733/5/6 727/5/6 734/5/6
f 732/5/6 733/5/6 735/5/6
f 735/5/6 733/5/6 736/5/6
f 737/5/6 738/5/6 741/5/6
f 741/5/6 738/5/6 742/5/6
f 739/5/6 740/5/6 743/5/6
f 743/5/6 740/5/6 744/5/6
f 745/1/6 746/1/6 747/1/6
f 747/1/6 746/1/6 748/1/6
f 749/5/6 750/5/6 753/5/6
f 753/5/6 750/5/6 754/5/6
f 751/5/6 752/5/6 755/5/6
f 755/5/6 752/5/6 756/5/6
f 757/2/6 758/2/6 759/2/6
f 759/2/6 758/2/6 760/2/6
f 761/2/6 762/2/6 763/2/6
f 763/2/6 762/2/6 764/2/6
f 765/2/6 766/2/6 767/2/6
f 767/2/6 766/2/6 768/2/6
f 769/2/6 770/2/6 771/2/6
f 771/2/6 770/2/6 772/2/6
f 773/2/6 774/2/6 775/2/6
f 775/2/6 774/2/6 776/2/6
f 777/2/6 778/2/6 779/2/6
f 779/2/6 778/2/6 780/2/6
