# MagicaVoxel @ Ephtracy

# material
mtllib Mushroom.mtl
usemtl palette

# normals
vn -1 0 0
vn 1 0 0
vn 0 0 1
vn 0 0 -1
vn 0 -1 0
vn 0 1 0

# texcoords
vt 0.341797 0.5
vt 0.369141 0.5
vt 0.373047 0.5

# verts
v -15 5 -12
v -15 5 -16
v -15 6 -12
v -15 6 -13
v -15 6 -15
v -15 6 -16
v -15 7 -13
v -15 7 -15
v -14 4 -13
v -14 4 -15
v -14 5 -11
v -14 5 -12
v -14 5 -13
v -14 5 -15
v -14 5 -16
v -14 5 -17
v -14 6 -11
v -14 6 -12
v -14 6 -16
v -14 6 -17
v -14 7 -13
v -14 7 -15
v -14 8 -13
v -14 8 -15
v -13 4 -12
v -13 4 -13
v -13 4 -15
v -13 4 -16
v -13 5 -10
v -13 5 -11
v -13 5 -12
v -13 5 -13
v -13 5 -15
v -13 5 -16
v -13 5 -17
v -13 5 -18
v -13 6 -10
v -13 6 -11
v -13 6 -12
v -13 6 -13
v -13 6 -15
v -13 6 -16
v -13 6 -17
v -13 6 -18
v -13 7 -12
v -13 7 -13
v -13 7 -15
v -13 7 -16
v -13 8 -13
v -13 8 -15
v -13 9 -13
v -13 9 -15
v -12 0 -13
v -12 0 -15
v -12 4 -11
v -12 4 -12
v -12 4 -13
v -12 4 -15
v -12 4 -16
v -12 4 -17
v -12 5 -11
v -12 5 -12
v -12 5 -16
v -12 5 -17
v -12 6 -10
v -12 6 -12
v -12 6 -16
v -12 6 -18
v -12 7 -10
v -12 7 -11
v -12 7 -12
v -12 7 -13
v -12 7 -15
v -12 7 -16
v -12 7 -17
v -12 7 -18
v -12 8 -11
v -12 8 -12
v -12 8 -16
v -12 8 -17
v -12 9 -12
v -12 9 -13
v -12 9 -15
v -12 9 -16
v -12 10 -13
v -12 10 -15
v -10 0 -13
v -10 0 -15
v -10 4 -11
v -10 4 -12
v -10 4 -13
v -10 4 -15
v -10 4 -16
v -10 4 -17
v -10 5 -11
v -10 5 -12
v -10 5 -16
v -10 5 -17
v -10 6 -10
v -10 6 -12
v -10 6 -16
v -10 6 -18
v -10 7 -10
v -10 7 -11
v -10 7 -12
v -10 7 -13
v -10 7 -15
v -10 7 -16
v -10 7 -17
v -10 7 -18
v -10 8 -11
v -10 8 -12
v -10 8 -16
v -10 8 -17
v -10 9 -12
v -10 9 -13
v -10 9 -15
v -10 9 -16
v -10 10 -13
v -10 10 -15
v -9 4 -12
v -9 4 -13
v -9 4 -15
v -9 4 -16
v -9 5 -10
v -9 5 -11
v -9 5 -12
v -9 5 -13
v -9 5 -15
v -9 5 -16
v -9 5 -17
v -9 5 -18
v -9 6 -10
v -9 6 -11
v -9 6 -12
v -9 6 -13
v -9 6 -15
v -9 6 -16
v -9 6 -17
v -9 6 -18
v -9 7 -12
v -9 7 -13
v -9 7 -15
v -9 7 -16
v -9 8 -13
v -9 8 -15
v -9 9 -13
v -9 9 -15
v -8 4 -13
v -8 4 -15
v -8 5 -11
v -8 5 -12
v -8 5 -13
v -8 5 -15
v -8 5 -16
v -8 5 -17
v -8 6 -11
v -8 6 -12
v -8 6 -16
v -8 6 -17
v -8 7 -13
v -8 7 -15
v -8 8 -13
v -8 8 -15
v -7 5 -12
v -7 5 -16
v -7 6 -12
v -7 6 -13
v -7 6 -15
v -7 6 -16
v -7 7 -13
v -7 7 -15
v -13 5 -10
v -13 6 -10
v -12 6 -10
v -12 7 -10
v -10 6 -10
v -10 7 -10
v -9 5 -10
v -9 6 -10
v -14 5 -11
v -14 6 -11
v -13 5 -11
v -13 6 -11
v -12 4 -11
v -12 5 -11
v -12 7 -11
v -12 8 -11
v -10 4 -11
v -10 5 -11
v -10 7 -11
v -10 8 -11
v -9 5 -11
v -9 6 -11
v -8 5 -11
v -8 6 -11
v -15 5 -12
v -15 6 -12
v -14 5 -12
v -14 6 -12
v -13 4 -12
v -13 5 -12
v -13 6 -12
v -13 7 -12
v -12 4 -12
v -12 5 -12
v -12 6 -12
v -12 7 -12
v -12 8 -12
v -12 9 -12
v -10 4 -12
v -10 5 -12
v -10 6 -12
v -10 7 -12
v -10 8 -12
v -10 9 -12
v -9 4 -12
v -9 5 -12
v -9 6 -12
v -9 7 -12
v -8 5 -12
v -8 6 -12
v -7 5 -12
v -7 6 -12
v -15 6 -13
v -15 7 -13
v -14 4 -13
v -14 5 -13
v -14 7 -13
v -14 8 -13
v -13 4 -13
v -13 5 -13
v -13 6 -13
v -13 7 -13
v -13 8 -13
v -13 9 -13
v -12 0 -13
v -12 4 -13
v -12 7 -13
v -12 9 -13
v -12 10 -13
v -10 0 -13
v -10 4 -13
v -10 7 -13
v -10 9 -13
v -10 10 -13
v -9 4 -13
v -9 5 -13
v -9 6 -13
v -9 7 -13
v -9 8 -13
v -9 9 -13
v -8 4 -13
v -8 5 -13
v -8 7 -13
v -8 8 -13
v -7 6 -13
v -7 7 -13
v -15 6 -15
v -15 7 -15
v -14 4 -15
v -14 5 -15
v -14 7 -15
v -14 8 -15
v -13 4 -15
v -13 5 -15
v -13 6 -15
v -13 7 -15
v -13 8 -15
v -13 9 -15
v -12 0 -15
v -12 4 -15
v -12 7 -15
v -12 9 -15
v -12 10 -15
v -10 0 -15
v -10 4 -15
v -10 7 -15
v -10 9 -15
v -10 10 -15
v -9 4 -15
v -9 5 -15
v -9 6 -15
v -9 7 -15
v -9 8 -15
v -9 9 -15
v -8 4 -15
v -8 5 -15
v -8 7 -15
v -8 8 -15
v -7 6 -15
v -7 7 -15
v -15 5 -16
v -15 6 -16
v -14 5 -16
v -14 6 -16
v -13 4 -16
v -13 5 -16
v -13 6 -16
v -13 7 -16
v -12 4 -16
v -12 5 -16
v -12 6 -16
v -12 7 -16
v -12 8 -16
v -12 9 -16
v -10 4 -16
v -10 5 -16
v -10 6 -16
v -10 7 -16
v -10 8 -16
v -10 9 -16
v -9 4 -16
v -9 5 -16
v -9 6 -16
v -9 7 -16
v -8 5 -16
v -8 6 -16
v -7 5 -16
v -7 6 -16
v -14 5 -17
v -14 6 -17
v -13 5 -17
v -13 6 -17
v -12 4 -17
v -12 5 -17
v -12 7 -17
v -12 8 -17
v -10 4 -17
v -10 5 -17
v -10 7 -17
v -10 8 -17
v -9 5 -17
v -9 6 -17
v -8 5 -17
v -8 6 -17
v -13 5 -18
v -13 6 -18
v -12 6 -18
v -12 7 -18
v -10 6 -18
v -10 7 -18
v -9 5 -18
v -9 6 -18
v -12 0 -13
v -10 0 -13
v -12 0 -15
v -10 0 -15
v -12 4 -11
v -10 4 -11
v -13 4 -12
v -12 4 -12
v -10 4 -12
v -9 4 -12
v -14 4 -13
v -13 4 -13
v -12 4 -13
v -10 4 -13
v -9 4 -13
v -8 4 -13
v -14 4 -15
v -13 4 -15
v -12 4 -15
v -10 4 -15
v -9 4 -15
v -8 4 -15
v -13 4 -16
v -12 4 -16
v -10 4 -16
v -9 4 -16
v -12 4 -17
v -10 4 -17
v -13 5 -10
v -9 5 -10
v -14 5 -11
v -13 5 -11
v -12 5 -11
v -10 5 -11
v -9 5 -11
v -8 5 -11
v -15 5 -12
v -14 5 -12
v -13 5 -12
v -12 5 -12
v -10 5 -12
v -9 5 -12
v -8 5 -12
v -7 5 -12
v -14 5 -13
v -13 5 -13
v -9 5 -13
v -8 5 -13
v -14 5 -15
v -13 5 -15
v -9 5 -15
v -8 5 -15
v -15 5 -16
v -14 5 -16
v -13 5 -16
v -12 5 -16
v -10 5 -16
v -9 5 -16
v -8 5 -16
v -7 5 -16
v -14 5 -17
v -13 5 -17
v -12 5 -17
v -10 5 -17
v -9 5 -17
v -8 5 -17
v -13 5 -18
v -9 5 -18
v -13 6 -10
v -12 6 -10
v -10 6 -10
v -9 6 -10
v -14 6 -11
v -13 6 -11
v -9 6 -11
v -8 6 -11
v -15 6 -12
v -14 6 -12
v -13 6 -12
v -12 6 -12
v -10 6 -12
v -9 6 -12
v -8 6 -12
v -7 6 -12
v -15 6 -13
v -13 6 -13
v -9 6 -13
v -7 6 -13
v -15 6 -15
v -13 6 -15
v -9 6 -15
v -7 6 -15
v -15 6 -16
v -14 6 -16
v -13 6 -16
v -12 6 -16
v -10 6 -16
v -9 6 -16
v -8 6 -16
v -7 6 -16
v -14 6 -17
v -13 6 -17
v -9 6 -17
v -8 6 -17
v -13 6 -18
v -12 6 -18
v -10 6 -18
v -9 6 -18
v -12 7 -10
v -10 7 -10
v -12 7 -11
v -10 7 -11
v -13 7 -12
v -12 7 -12
v -10 7 -12
v -9 7 -12
v -15 7 -13
v -14 7 -13
v -13 7 -13
v -12 7 -13
v -10 7 -13
v -9 7 -13
v -8 7 -13
v -7 7 -13
v -15 7 -15
v -14 7 -15
v -13 7 -15
v -12 7 -15
v -10 7 -15
v -9 7 -15
v -8 7 -15
v -7 7 -15
v -13 7 -16
v -12 7 -16
v -10 7 -16
v -9 7 -16
v -12 7 -17
v -10 7 -17
v -12 7 -18
v -10 7 -18
v -12 8 -11
v -10 8 -11
v -12 8 -12
v -10 8 -12
v -14 8 -13
v -13 8 -13
v -9 8 -13
v -8 8 -13
v -14 8 -15
v -13 8 -15
v -9 8 -15
v -8 8 -15
v -12 8 -16
v -10 8 -16
v -12 8 -17
v -10 8 -17
v -12 9 -12
v -10 9 -12
v -13 9 -13
v -12 9 -13
v -10 9 -13
v -9 9 -13
v -13 9 -15
v -12 9 -15
v -10 9 -15
v -9 9 -15
v -12 9 -16
v -10 9 -16
v -12 10 -13
v -10 10 -13
v -12 10 -15
v -10 10 -15

# faces
f 3/2/1 2/2/1 1/2/1
f 4/2/1 2/2/1 3/2/1
f 5/2/1 2/2/1 4/2/1
f 6/2/1 2/2/1 5/2/1
f 7/2/1 5/2/1 4/2/1
f 8/2/1 5/2/1 7/2/1
f 13/3/1 10/3/1 9/3/1
f 14/3/1 10/3/1 13/3/1
f 17/2/1 12/2/1 11/2/1
f 18/2/1 12/2/1 17/2/1
f 19/2/1 16/2/1 15/2/1
f 20/2/1 16/2/1 19/2/1
f 23/2/1 22/2/1 21/2/1
f 24/2/1 22/2/1 23/2/1
f 31/3/1 26/3/1 25/3/1
f 32/3/1 26/3/1 31/3/1
f 33/3/1 28/3/1 27/3/1
f 34/3/1 28/3/1 33/3/1
f 37/2/1 30/2/1 29/2/1
f 38/2/1 30/2/1 37/2/1
f 43/2/1 36/2/1 35/2/1
f 44/2/1 36/2/1 43/2/1
f 45/2/1 40/2/1 39/2/1
f 46/2/1 40/2/1 45/2/1
f 47/2/1 42/2/1 41/2/1
f 48/2/1 42/2/1 47/2/1
f 51/2/1 50/2/1 49/2/1
f 52/2/1 50/2/1 51/2/1
f 57/1/1 54/1/1 53/1/1
f 58/1/1 54/1/1 57/1/1
f 61/3/1 56/3/1 55/3/1
f 62/3/1 56/3/1 61/3/1
f 63/3/1 60/3/1 59/3/1
f 64/3/1 60/3/1 63/3/1
f 69/2/1 66/2/1 65/2/1
f 70/2/1 66/2/1 69/2/1
f 71/2/1 66/2/1 70/2/1
f 74/2/1 68/2/1 67/2/1
f 75/2/1 68/2/1 74/2/1
f 76/2/1 68/2/1 75/2/1
f 77/2/1 72/2/1 71/2/1
f 77/2/1 71/2/1 70/2/1
f 78/2/1 72/2/1 77/2/1
f 79/2/1 75/2/1 74/2/1
f 79/2/1 74/2/1 73/2/1
f 80/2/1 75/2/1 79/2/1
f 81/2/1 72/2/1 78/2/1
f 82/2/1 72/2/1 81/2/1
f 83/2/1 79/2/1 73/2/1
f 84/2/1 79/2/1 83/2/1
f 85/2/1 83/2/1 82/2/1
f 86/2/1 83/2/1 85/2/1
f 87/1/2 88/1/2 91/1/2
f 91/1/2 88/1/2 92/1/2
f 89/3/2 90/3/2 95/3/2
f 95/3/2 90/3/2 96/3/2
f 93/3/2 94/3/2 97/3/2
f 97/3/2 94/3/2 98/3/2
f 99/2/2 100/2/2 103/2/2
f 103/2/2 100/2/2 104/2/2
f 104/2/2 100/2/2 105/2/2
f 101/2/2 102/2/2 108/2/2
f 108/2/2 102/2/2 109/2/2
f 109/2/2 102/2/2 110/2/2
f 105/2/2 106/2/2 111/2/2
f 104/2/2 105/2/2 111/2/2
f 111/2/2 106/2/2 112/2/2
f 108/2/2 109/2/2 113/2/2
f 107/2/2 108/2/2 113/2/2
f 113/2/2 109/2/2 114/2/2
f 112/2/2 106/2/2 115/2/2
f 115/2/2 106/2/2 116/2/2
f 107/2/2 113/2/2 117/2/2
f 117/2/2 113/2/2 118/2/2
f 116/2/2 117/2/2 119/2/2
f 119/2/2 117/2/2 120/2/2
f 121/3/2 122/3/2 127/3/2
f 127/3/2 122/3/2 128/3/2
f 123/3/2 124/3/2 129/3/2
f 129/3/2 124/3/2 130/3/2
f 125/2/2 126/2/2 133/2/2
f 133/2/2 126/2/2 134/2/2
f 131/2/2 132/2/2 139/2/2
f 139/2/2 132/2/2 140/2/2
f 135/2/2 136/2/2 141/2/2
f 141/2/2 136/2/2 142/2/2
f 137/2/2 138/2/2 143/2/2
f 143/2/2 138/2/2 144/2/2
f 145/2/2 146/2/2 147/2/2
f 147/2/2 146/2/2 148/2/2
f 149/3/2 150/3/2 153/3/2
f 153/3/2 150/3/2 154/3/2
f 151/2/2 152/2/2 157/2/2
f 157/2/2 152/2/2 158/2/2
f 155/2/2 156/2/2 159/2/2
f 159/2/2 156/2/2 160/2/2
f 161/2/2 162/2/2 163/2/2
f 163/2/2 162/2/2 164/2/2
f 165/2/2 166/2/2 167/2/2
f 167/2/2 166/2/2 168/2/2
f 168/2/2 166/2/2 169/2/2
f 169/2/2 166/2/2 170/2/2
f 168/2/2 169/2/2 171/2/2
f 171/2/2 169/2/2 172/2/2
f 175/2/3 174/2/3 173/2/3
f 177/2/3 175/2/3 173/2/3
f 177/2/3 176/2/3 175/2/3
f 178/2/3 176/2/3 177/2/3
f 179/2/3 177/2/3 173/2/3
f 180/2/3 177/2/3 179/2/3
f 183/2/3 182/2/3 181/2/3
f 184/2/3 182/2/3 183/2/3
f 189/3/3 186/3/3 185/3/3
f 190/3/3 186/3/3 189/3/3
f 191/2/3 188/2/3 187/2/3
f 192/2/3 188/2/3 191/2/3
f 195/2/3 194/2/3 193/2/3
f 196/2/3 194/2/3 195/2/3
f 199/2/3 198/2/3 197/2/3
f 200/2/3 198/2/3 199/2/3
f 205/3/3 202/3/3 201/3/3
f 206/3/3 202/3/3 205/3/3
f 207/2/3 204/2/3 203/2/3
f 208/2/3 204/2/3 207/2/3
f 215/2/3 210/2/3 209/2/3
f 216/2/3 210/2/3 215/2/3
f 217/3/3 212/3/3 211/3/3
f 218/3/3 212/3/3 217/3/3
f 219/2/3 214/2/3 213/2/3
f 220/2/3 214/2/3 219/2/3
f 223/2/3 222/2/3 221/2/3
f 224/2/3 222/2/3 223/2/3
f 229/2/3 226/2/3 225/2/3
f 231/3/3 228/3/3 227/3/3
f 232/3/3 228/3/3 231/3/3
f 233/2/3 230/2/3 229/2/3
f 233/2/3 229/2/3 225/2/3
f 234/2/3 230/2/3 233/2/3
f 235/2/3 230/2/3 234/2/3
f 239/2/3 236/2/3 235/2/3
f 239/2/3 235/2/3 234/2/3
f 240/2/3 236/2/3 239/2/3
f 242/1/3 238/1/3 237/1/3
f 243/1/3 238/1/3 242/1/3
f 245/2/3 241/2/3 240/2/3
f 246/2/3 241/2/3 245/2/3
f 250/2/3 245/2/3 244/2/3
f 251/2/3 245/2/3 250/2/3
f 252/2/3 245/2/3 251/2/3
f 253/3/3 248/3/3 247/3/3
f 254/3/3 248/3/3 253/3/3
f 255/2/3 250/2/3 249/2/3
f 255/2/3 251/2/3 250/2/3
f 256/2/3 251/2/3 255/2/3
f 257/2/3 255/2/3 249/2/3
f 258/2/3 255/2/3 257/2/3
f 259/2/4 260/2/4 263/2/4
f 261/3/4 262/3/4 265/3/4
f 265/3/4 262/3/4 266/3/4
f 263/2/4 264/2/4 267/2/4
f 259/2/4 263/2/4 267/2/4
f 267/2/4 264/2/4 268/2/4
f 268/2/4 264/2/4 269/2/4
f 269/2/4 270/2/4 273/2/4
f 268/2/4 269/2/4 273/2/4
f 273/2/4 270/2/4 274/2/4
f 271/1/4 272/1/4 276/1/4
f 276/1/4 272/1/4 277/1/4
f 274/2/4 275/2/4 279/2/4
f 279/2/4 275/2/4 280/2/4
f 278/2/4 279/2/4 284/2/4
f 284/2/4 279/2/4 285/2/4
f 285/2/4 279/2/4 286/2/4
f 281/3/4 282/3/4 287/3/4
f 287/3/4 282/3/4 288/3/4
f 283/2/4 284/2/4 289/2/4
f 284/2/4 285/2/4 289/2/4
f 289/2/4 285/2/4 290/2/4
f 283/2/4 289/2/4 291/2/4
f 291/2/4 289/2/4 292/2/4
f 293/2/4 294/2/4 295/2/4
f 295/2/4 294/2/4 296/2/4
f 297/3/4 298/3/4 301/3/4
f 301/3/4 298/3/4 302/3/4
f 299/2/4 300/2/4 303/2/4
f 303/2/4 300/2/4 304/2/4
f 305/2/4 306/2/4 311/2/4
f 311/2/4 306/2/4 312/2/4
f 307/3/4 308/3/4 313/3/4
f 313/3/4 308/3/4 314/3/4
f 309/2/4 310/2/4 315/2/4
f 315/2/4 310/2/4 316/2/4
f 317/2/4 318/2/4 319/2/4
f 319/2/4 318/2/4 320/2/4
f 321/2/4 322/2/4 323/2/4
f 323/2/4 322/2/4 324/2/4
f 325/3/4 326/3/4 329/3/4
f 329/3/4 326/3/4 330/3/4
f 327/2/4 328/2/4 331/2/4
f 331/2/4 328/2/4 332/2/4
f 333/2/4 334/2/4 335/2/4
f 335/2/4 334/2/4 336/2/4
f 337/2/4 338/2/4 339/2/4
f 337/2/4 339/2/4 341/2/4
f 339/2/4 340/2/4 341/2/4
f 341/2/4 340/2/4 342/2/4
f 337/2/4 341/2/4 343/2/4
f 343/2/4 341/2/4 344/2/4
f 347/1/5 346/1/5 345/1/5
f 348/1/5 346/1/5 347/1/5
f 352/3/5 350/3/5 349/3/5
f 353/3/5 350/3/5 352/3/5
f 356/3/5 352/3/5 351/3/5
f 356/3/5 354/3/5 353/3/5
f 356/3/5 353/3/5 352/3/5
f 357/3/5 354/3/5 356/3/5
f 358/3/5 354/3/5 357/3/5
f 359/3/5 354/3/5 358/3/5
f 361/3/5 356/3/5 355/3/5
f 361/3/5 357/3/5 356/3/5
f 362/3/5 357/3/5 361/3/5
f 363/3/5 357/3/5 362/3/5
f 364/3/5 360/3/5 359/3/5
f 364/3/5 359/3/5 358/3/5
f 365/3/5 360/3/5 364/3/5
f 366/3/5 360/3/5 365/3/5
f 367/3/5 363/3/5 362/3/5
f 367/3/5 365/3/5 364/3/5
f 367/3/5 364/3/5 363/3/5
f 368/3/5 365/3/5 367/3/5
f 369/3/5 365/3/5 368/3/5
f 370/3/5 365/3/5 369/3/5
f 371/3/5 369/3/5 368/3/5
f 372/3/5 369/3/5 371/3/5
f 376/2/5 374/2/5 373/2/5
f 377/2/5 374/2/5 376/2/5
f 378/2/5 374/2/5 377/2/5
f 379/2/5 374/2/5 378/2/5
f 382/2/5 376/2/5 375/2/5
f 382/2/5 377/2/5 376/2/5
f 383/2/5 377/2/5 382/2/5
f 384/2/5 377/2/5 383/2/5
f 385/2/5 379/2/5 378/2/5
f 385/2/5 380/2/5 379/2/5
f 386/2/5 380/2/5 385/2/5
f 387/2/5 380/2/5 386/2/5
f 389/2/5 383/2/5 382/2/5
f 389/2/5 382/2/5 381/2/5
f 390/2/5 383/2/5 389/2/5
f 391/2/5 388/2/5 387/2/5
f 391/2/5 387/2/5 386/2/5
f 392/2/5 388/2/5 391/2/5
f 393/2/5 389/2/5 381/2/5
f 396/2/5 388/2/5 392/2/5
f 397/2/5 394/2/5 393/2/5
f 397/2/5 393/2/5 381/2/5
f 398/2/5 394/2/5 397/2/5
f 399/2/5 394/2/5 398/2/5
f 402/2/5 396/2/5 395/2/5
f 403/2/5 388/2/5 396/2/5
f 403/2/5 396/2/5 402/2/5
f 404/2/5 388/2/5 403/2/5
f 405/2/5 400/2/5 399/2/5
f 405/2/5 399/2/5 398/2/5
f 406/2/5 400/2/5 405/2/5
f 407/2/5 400/2/5 406/2/5
f 408/2/5 402/2/5 401/2/5
f 408/2/5 403/2/5 402/2/5
f 409/2/5 403/2/5 408/2/5
f 410/2/5 403/2/5 409/2/5
f 411/2/5 407/2/5 406/2/5
f 411/2/5 409/2/5 408/2/5
f 411/2/5 408/2/5 407/2/5
f 412/2/5 409/2/5 411/2/5
f 413/2/6 414/2/6 418/2/6
f 415/2/6 416/2/6 419/2/6
f 417/2/6 418/2/6 422/2/6
f 418/2/6 414/2/6 423/2/6
f 422/2/6 418/2/6 423/2/6
f 423/2/6 414/2/6 424/2/6
f 419/2/6 420/2/6 425/2/6
f 415/2/6 419/2/6 425/2/6
f 425/2/6 420/2/6 426/2/6
f 426/2/6 420/2/6 427/2/6
f 421/2/6 422/2/6 429/2/6
f 422/2/6 423/2/6 429/2/6
f 429/2/6 423/2/6 430/2/6
f 427/2/6 428/2/6 431/2/6
f 426/2/6 427/2/6 431/2/6
f 431/2/6 428/2/6 432/2/6
f 433/2/6 434/2/6 437/2/6
f 437/2/6 434/2/6 438/2/6
f 438/2/6 434/2/6 439/2/6
f 435/2/6 436/2/6 442/2/6
f 442/2/6 436/2/6 443/2/6
f 443/2/6 436/2/6 444/2/6
f 439/2/6 440/2/6 445/2/6
f 438/2/6 439/2/6 445/2/6
f 445/2/6 440/2/6 446/2/6
f 442/2/6 443/2/6 447/2/6
f 441/2/6 442/2/6 447/2/6
f 447/2/6 443/2/6 448/2/6
f 446/2/6 440/2/6 449/2/6
f 449/2/6 440/2/6 450/2/6
f 441/2/6 447/2/6 451/2/6
f 451/2/6 447/2/6 452/2/6
f 453/2/6 454/2/6 455/2/6
f 455/2/6 454/2/6 456/2/6
f 457/2/6 458/2/6 463/2/6
f 463/2/6 458/2/6 464/2/6
f 459/2/6 460/2/6 465/2/6
f 465/2/6 460/2/6 466/2/6
f 461/2/6 462/2/6 469/2/6
f 469/2/6 462/2/6 470/2/6
f 467/2/6 468/2/6 475/2/6
f 475/2/6 468/2/6 476/2/6
f 471/2/6 472/2/6 477/2/6
f 477/2/6 472/2/6 478/2/6
f 473/2/6 474/2/6 479/2/6
f 479/2/6 474/2/6 480/2/6
f 481/2/6 482/2/6 483/2/6
f 483/2/6 482/2/6 484/2/6
f 485/2/6 486/2/6 487/2/6
f 487/2/6 486/2/6 488/2/6
f 489/2/6 490/2/6 493/2/6
f 493/2/6 490/2/6 494/2/6
f 491/2/6 492/2/6 495/2/6
f 495/2/6 492/2/6 496/2/6
f 497/2/6 498/2/6 499/2/6
f 499/2/6 498/2/6 500/2/6
f 501/2/6 502/2/6 504/2/6
f 504/2/6 502/2/6 505/2/6
f 503/2/6 504/2/6 507/2/6
f 507/2/6 504/2/6 508/2/6
f 505/2/6 506/2/6 509/2/6
f 509/2/6 506/2/6 510/2/6
f 508/2/6 509/2/6 511/2/6
f 511/2/6 509/2/6 512/2/6
f 513/2/6 514/2/6 515/2/6
f 515/2/6 514/2/6 516/2/6
