# MagicaVoxel @ Ephtracy

# material
mtllib pingwin.mtl
usemtl palette

# normals
vn -1 0 0
vn 1 0 0
vn 0 0 1
vn 0 0 -1
vn 0 -1 0
vn 0 1 0

# texcoords
vt 0.0214844 0.5
vt 0.0449219 0.5
vt 0.869141 0.5
vt 0.958984 0.5
vt 0.994141 0.5

# verts
v -14 8 4
v -14 8 1
v -14 9 4
v -14 9 1
v -13 8 1
v -13 8 -0
v -13 9 4
v -13 9 1
v -13 9 -0
v -13 10 4
v -13 10 1
v -12 9 1
v -12 9 -0
v -12 10 4
v -12 10 1
v -12 10 -0
v -12 12 4
v -12 12 1
v -11 10 1
v -11 10 -0
v -11 11 1
v -11 11 -0
v -11 12 4
v -11 12 1
v -11 15 4
v -11 15 1
v -11 18 6
v -11 18 3
v -11 19 5
v -11 19 4
v -11 20 5
v -11 20 4
v -11 21 6
v -11 21 3
v -10 3 7
v -10 3 4
v -10 3 -1
v -10 8 4
v -10 8 -0
v -10 11 1
v -10 11 -0
v -10 15 7
v -10 15 4
v -10 15 1
v -10 18 6
v -10 18 3
v -10 21 6
v -10 21 3
v -10 22 7
v -10 22 -1
v -9 0 6
v -9 0 1
v -9 1 6
v -9 1 1
v -8 1 4
v -8 1 2
v -8 3 4
v -8 3 2
v -6 17 10
v -6 17 7
v -6 19 10
v -6 19 7
v -4 0 6
v -4 0 1
v -4 1 6
v -4 1 1
v -3 1 4
v -3 1 2
v -3 3 4
v -3 3 2
v 3 4 5
v 3 4 2
v 3 7 5
v 3 7 4
v 3 7 3
v 3 7 2
v 3 8 4
v 3 8 3
v -6 1 4
v -6 1 2
v -6 3 4
v -6 3 2
v -5 0 6
v -5 0 1
v -5 1 6
v -5 1 1
v -3 17 10
v -3 17 7
v -3 19 10
v -3 19 7
v -1 1 4
v -1 1 2
v -1 3 4
v -1 3 2
v 0 0 6
v 0 0 1
v 0 1 6
v 0 1 1
v 1 3 7
v 1 3 4
v 1 3 -1
v 1 8 4
v 1 8 -0
v 1 12 1
v 1 12 -0
v 1 15 7
v 1 15 4
v 1 15 1
v 1 18 6
v 1 18 3
v 1 21 6
v 1 21 3
v 1 22 7
v 1 22 -1
v 2 10 1
v 2 10 -0
v 2 12 4
v 2 12 1
v 2 12 -0
v 2 15 4
v 2 15 1
v 2 18 6
v 2 18 3
v 2 19 5
v 2 19 4
v 2 20 5
v 2 20 4
v 2 21 6
v 2 21 3
v 3 9 1
v 3 9 -0
v 3 10 4
v 3 10 1
v 3 10 -0
v 3 12 4
v 3 12 1
v 4 8 1
v 4 8 -0
v 4 9 4
v 4 9 1
v 4 9 -0
v 4 10 4
v 4 10 1
v 5 8 4
v 5 8 3
v 5 8 1
v 5 9 4
v 5 9 1
v 6 4 5
v 6 4 2
v 6 7 5
v 6 7 4
v 6 7 3
v 6 7 2
v 6 8 4
v 6 8 3
v -6 17 10
v -6 19 10
v -3 17 10
v -3 19 10
v -10 3 7
v -10 15 7
v -10 22 7
v -6 17 7
v -6 19 7
v -3 17 7
v -3 19 7
v 1 3 7
v 1 15 7
v 1 22 7
v -11 18 6
v -11 21 6
v -10 18 6
v -10 21 6
v -9 0 6
v -9 1 6
v -5 0 6
v -5 1 6
v -4 0 6
v -4 1 6
v 0 0 6
v 0 1 6
v 1 18 6
v 1 21 6
v 2 18 6
v 2 21 6
v 3 4 5
v 3 7 5
v 6 4 5
v 6 7 5
v -14 8 4
v -14 9 4
v -13 9 4
v -13 10 4
v -12 10 4
v -12 12 4
v -11 12 4
v -11 15 4
v -10 8 4
v -10 15 4
v -8 1 4
v -8 3 4
v -6 1 4
v -6 3 4
v -3 1 4
v -3 3 4
v -1 1 4
v -1 3 4
v 1 8 4
v 1 15 4
v 2 12 4
v 2 15 4
v 3 7 4
v 3 8 4
v 3 10 4
v 3 12 4
v 4 9 4
v 4 10 4
v 5 8 4
v 5 9 4
v 6 7 4
v 6 8 4
v -11 18 3
v -11 21 3
v -10 18 3
v -10 21 3
v 1 18 3
v 1 21 3
v 2 18 3
v 2 21 3
v 3 7 3
v 3 8 3
v 5 8 3
v 6 7 3
v 6 8 3
v -8 1 2
v -8 3 2
v -6 1 2
v -6 3 2
v -3 1 2
v -3 3 2
v -1 1 2
v -1 3 2
v 3 4 2
v 3 7 2
v 6 4 2
v 6 7 2
v -14 8 1
v -14 9 1
v -13 8 1
v -13 9 1
v -13 10 1
v -12 9 1
v -12 10 1
v -12 12 1
v -11 10 1
v -11 11 1
v -11 12 1
v -11 15 1
v -10 11 1
v -10 15 1
v -9 0 1
v -9 1 1
v -5 0 1
v -5 1 1
v -4 0 1
v -4 1 1
v 0 0 1
v 0 1 1
v 1 12 1
v 1 15 1
v 2 10 1
v 2 12 1
v 2 15 1
v 3 9 1
v 3 10 1
v 3 12 1
v 4 8 1
v 4 9 1
v 4 10 1
v 5 8 1
v 5 9 1
v -13 8 -0
v -13 9 -0
v -12 9 -0
v -12 10 -0
v -11 10 -0
v -11 11 -0
v -10 8 -0
v -10 11 -0
v 1 8 -0
v 1 12 -0
v 2 10 -0
v 2 12 -0
v 3 9 -0
v 3 10 -0
v 4 8 -0
v 4 9 -0
v -10 3 -1
v -10 22 -1
v 1 3 -1
v 1 22 -1
v -9 0 6
v -5 0 6
v -4 0 6
v 0 0 6
v -9 0 1
v -5 0 1
v -4 0 1
v 0 0 1
v -10 3 7
v 1 3 7
v -10 3 4
v -8 3 4
v -6 3 4
v -3 3 4
v -1 3 4
v 1 3 4
v -8 3 2
v -6 3 2
v -3 3 2
v -1 3 2
v -10 3 -1
v 1 3 -1
v 3 4 5
v 6 4 5
v 3 4 2
v 6 4 2
v -14 8 4
v -10 8 4
v 1 8 4
v 3 8 4
v 3 8 3
v 5 8 3
v -14 8 1
v -13 8 1
v 4 8 1
v 5 8 1
v -13 8 -0
v -10 8 -0
v 1 8 -0
v 4 8 -0
v -6 17 10
v -3 17 10
v -6 17 7
v -3 17 7
v -11 18 6
v -10 18 6
v 1 18 6
v 2 18 6
v -11 18 3
v -10 18 3
v 1 18 3
v 2 18 3
v -9 1 6
v -5 1 6
v -4 1 6
v 0 1 6
v -8 1 4
v -6 1 4
v -3 1 4
v -1 1 4
v -8 1 2
v -6 1 2
v -3 1 2
v -1 1 2
v -9 1 1
v -5 1 1
v -4 1 1
v 0 1 1
v 3 7 5
v 6 7 5
v 3 7 4
v 6 7 4
v 3 7 3
v 6 7 3
v 3 7 2
v 6 7 2
v 5 8 4
v 6 8 4
v 5 8 3
v 6 8 3
v -14 9 4
v -13 9 4
v 4 9 4
v 5 9 4
v -14 9 1
v -13 9 1
v -12 9 1
v 3 9 1
v 4 9 1
v 5 9 1
v -13 9 -0
v -12 9 -0
v 3 9 -0
v 4 9 -0
v -13 10 4
v -12 10 4
v 3 10 4
v 4 10 4
v -13 10 1
v -12 10 1
v -11 10 1
v 2 10 1
v 3 10 1
v 4 10 1
v -12 10 -0
v -11 10 -0
v 2 10 -0
v 3 10 -0
v -11 11 1
v -10 11 1
v -11 11 -0
v -10 11 -0
v -12 12 4
v -11 12 4
v 2 12 4
v 3 12 4
v -12 12 1
v -11 12 1
v 1 12 1
v 2 12 1
v 3 12 1
v 1 12 -0
v 2 12 -0
v -11 15 4
v -10 15 4
v 1 15 4
v 2 15 4
v -11 15 1
v -10 15 1
v 1 15 1
v 2 15 1
v -6 19 10
v -3 19 10
v -6 19 7
v -3 19 7
v -11 21 6
v -10 21 6
v 1 21 6
v 2 21 6
v -11 21 3
v -10 21 3
v 1 21 3
v 2 21 3
v -10 22 7
v 1 22 7
v -10 22 -1
v 1 22 -1

# faces
f 3/5/1 2/5/1 1/5/1
f 4/5/1 2/5/1 3/5/1
f 8/5/1 6/5/1 5/5/1
f 9/5/1 6/5/1 8/5/1
f 10/5/1 8/5/1 7/5/1
f 11/5/1 8/5/1 10/5/1
f 15/5/1 13/5/1 12/5/1
f 16/5/1 13/5/1 15/5/1
f 17/5/1 15/5/1 14/5/1
f 18/5/1 15/5/1 17/5/1
f 21/5/1 20/5/1 19/5/1
f 22/5/1 20/5/1 21/5/1
f 25/5/1 24/5/1 23/5/1
f 26/5/1 24/5/1 25/5/1
f 29/4/1 28/4/1 27/4/1
f 30/4/1 28/4/1 29/4/1
f 31/4/1 29/4/1 27/4/1
f 31/5/1 30/5/1 29/5/1
f 32/4/1 28/4/1 30/4/1
f 32/5/1 30/5/1 31/5/1
f 33/4/1 31/4/1 27/4/1
f 33/4/1 32/4/1 31/4/1
f 34/4/1 28/4/1 32/4/1
f 34/4/1 32/4/1 33/4/1
f 38/4/1 36/4/1 35/4/1
f 38/5/1 37/5/1 36/5/1
f 39/5/1 37/5/1 38/5/1
f 41/5/1 37/5/1 39/5/1
f 42/4/1 38/4/1 35/4/1
f 43/4/1 38/4/1 42/4/1
f 44/5/1 41/5/1 40/5/1
f 45/5/1 43/5/1 42/5/1
f 45/5/1 44/5/1 43/5/1
f 46/5/1 44/5/1 45/5/1
f 47/5/1 45/5/1 42/5/1
f 48/5/1 44/5/1 46/5/1
f 49/5/1 47/5/1 42/5/1
f 49/5/1 48/5/1 47/5/1
f 50/5/1 41/5/1 44/5/1
f 50/5/1 48/5/1 49/5/1
f 50/5/1 37/5/1 41/5/1
f 50/5/1 44/5/1 48/5/1
f 53/1/1 52/1/1 51/1/1
f 54/1/1 52/1/1 53/1/1
f 57/1/1 56/1/1 55/1/1
f 58/1/1 56/1/1 57/1/1
f 61/2/1 60/2/1 59/2/1
f 62/2/1 60/2/1 61/2/1
f 65/1/1 64/1/1 63/1/1
f 66/1/1 64/1/1 65/1/1
f 69/1/1 68/1/1 67/1/1
f 70/1/1 68/1/1 69/1/1
f 73/3/1 72/3/1 71/3/1
f 74/3/1 72/3/1 73/3/1
f 75/3/1 72/3/1 74/3/1
f 76/3/1 72/3/1 75/3/1
f 77/3/1 75/3/1 74/3/1
f 78/3/1 75/3/1 77/3/1
f 79/1/2 80/1/2 81/1/2
f 81/1/2 80/1/2 82/1/2
f 83/1/2 84/1/2 85/1/2
f 85/1/2 84/1/2 86/1/2
f 87/2/2 88/2/2 89/2/2
f 89/2/2 88/2/2 90/2/2
f 91/1/2 92/1/2 93/1/2
f 93/1/2 92/1/2 94/1/2
f 95/1/2 96/1/2 97/1/2
f 97/1/2 96/1/2 98/1/2
f 99/4/2 100/4/2 102/4/2
f 100/5/2 101/5/2 102/5/2
f 102/5/2 101/5/2 103/5/2
f 103/5/2 101/5/2 105/5/2
f 99/4/2 102/4/2 106/4/2
f 106/4/2 102/4/2 107/4/2
f 104/5/2 105/5/2 108/5/2
f 106/5/2 107/5/2 109/5/2
f 107/5/2 108/5/2 109/5/2
f 109/5/2 108/5/2 110/5/2
f 106/5/2 109/5/2 111/5/2
f 110/5/2 108/5/2 112/5/2
f 106/5/2 111/5/2 113/5/2
f 111/5/2 112/5/2 113/5/2
f 108/5/2 105/5/2 114/5/2
f 113/5/2 112/5/2 114/5/2
f 105/5/2 101/5/2 114/5/2
f 112/5/2 108/5/2 114/5/2
f 115/5/2 116/5/2 118/5/2
f 118/5/2 116/5/2 119/5/2
f 117/5/2 118/5/2 120/5/2
f 120/5/2 118/5/2 121/5/2
f 122/4/2 123/4/2 124/4/2
f 124/4/2 123/4/2 125/4/2
f 122/4/2 124/4/2 126/4/2
f 124/5/2 125/5/2 126/5/2
f 125/4/2 123/4/2 127/4/2
f 126/5/2 125/5/2 127/5/2
f 122/4/2 126/4/2 128/4/2
f 126/4/2 127/4/2 128/4/2
f 127/4/2 123/4/2 129/4/2
f 128/4/2 127/4/2 129/4/2
f 130/5/2 131/5/2 133/5/2
f 133/5/2 131/5/2 134/5/2
f 132/5/2 133/5/2 135/5/2
f 135/5/2 133/5/2 136/5/2
f 137/5/2 138/5/2 140/5/2
f 140/5/2 138/5/2 141/5/2
f 139/5/2 140/5/2 142/5/2
f 142/5/2 140/5/2 143/5/2
f 144/5/2 145/5/2 147/5/2
f 145/5/2 146/5/2 147/5/2
f 147/5/2 146/5/2 148/5/2
f 149/3/2 150/3/2 151/3/2
f 151/3/2 150/3/2 152/3/2
f 152/3/2 150/3/2 153/3/2
f 153/3/2 150/3/2 154/3/2
f 152/3/2 153/3/2 155/3/2
f 155/3/2 153/3/2 156/3/2
f 159/2/3 158/2/3 157/2/3
f 160/2/3 158/2/3 159/2/3
f 164/5/3 163/5/3 162/5/3
f 165/5/3 163/5/3 164/5/3
f 166/5/3 164/5/3 162/5/3
f 167/5/3 163/5/3 165/5/3
f 168/4/3 162/4/3 161/4/3
f 169/5/3 167/5/3 166/5/3
f 169/4/3 162/4/3 168/4/3
f 169/5/3 166/5/3 162/5/3
f 170/5/3 163/5/3 167/5/3
f 170/5/3 167/5/3 169/5/3
f 173/4/3 172/4/3 171/4/3
f 174/4/3 172/4/3 173/4/3
f 177/1/3 176/1/3 175/1/3
f 178/1/3 176/1/3 177/1/3
f 181/1/3 180/1/3 179/1/3
f 182/1/3 180/1/3 181/1/3
f 185/4/3 184/4/3 183/4/3
f 186/4/3 184/4/3 185/4/3
f 189/3/3 188/3/3 187/3/3
f 190/3/3 188/3/3 189/3/3
f 193/5/3 192/5/3 191/5/3
f 195/5/3 194/5/3 193/5/3
f 197/5/3 196/5/3 195/5/3
f 199/5/3 193/5/3 191/5/3
f 199/5/3 198/5/3 197/5/3
f 199/5/3 197/5/3 195/5/3
f 199/5/3 195/5/3 193/5/3
f 200/5/3 198/5/3 199/5/3
f 203/1/3 202/1/3 201/1/3
f 204/1/3 202/1/3 203/1/3
f 207/1/3 206/1/3 205/1/3
f 208/1/3 206/1/3 207/1/3
f 211/5/3 210/5/3 209/5/3
f 212/5/3 210/5/3 211/5/3
f 214/5/3 211/5/3 209/5/3
f 215/5/3 211/5/3 214/5/3
f 216/5/3 211/5/3 215/5/3
f 217/5/3 215/5/3 214/5/3
f 218/5/3 215/5/3 217/5/3
f 219/3/3 214/3/3 213/3/3
f 219/5/3 217/5/3 214/5/3
f 220/5/3 217/5/3 219/5/3
f 221/3/3 219/3/3 213/3/3
f 222/3/3 219/3/3 221/3/3
f 223/4/4 224/4/4 225/4/4
f 225/4/4 224/4/4 226/4/4
f 227/4/4 228/4/4 229/4/4
f 229/4/4 228/4/4 230/4/4
f 231/3/4 232/3/4 233/3/4
f 231/3/4 233/3/4 234/3/4
f 234/3/4 233/3/4 235/3/4
f 236/1/4 237/1/4 238/1/4
f 238/1/4 237/1/4 239/1/4
f 240/1/4 241/1/4 242/1/4
f 242/1/4 241/1/4 243/1/4
f 244/3/4 245/3/4 246/3/4
f 246/3/4 245/3/4 247/3/4
f 248/5/4 249/5/4 250/5/4
f 250/5/4 249/5/4 251/5/4
f 251/5/4 252/5/4 253/5/4
f 253/5/4 252/5/4 254/5/4
f 254/5/4 255/5/4 256/5/4
f 256/5/4 255/5/4 257/5/4
f 257/5/4 255/5/4 258/5/4
f 258/5/4 259/5/4 260/5/4
f 257/5/4 258/5/4 260/5/4
f 260/5/4 259/5/4 261/5/4
f 262/1/4 263/1/4 264/1/4
f 264/1/4 263/1/4 265/1/4
f 266/1/4 267/1/4 268/1/4
f 268/1/4 267/1/4 269/1/4
f 270/5/4 271/5/4 273/5/4
f 273/5/4 271/5/4 274/5/4
f 272/5/4 273/5/4 276/5/4
f 276/5/4 273/5/4 277/5/4
f 275/5/4 276/5/4 279/5/4
f 279/5/4 276/5/4 280/5/4
f 278/5/4 279/5/4 281/5/4
f 281/5/4 279/5/4 282/5/4
f 283/5/4 284/5/4 285/5/4
f 285/5/4 286/5/4 287/5/4
f 283/5/4 285/5/4 289/5/4
f 287/5/4 288/5/4 289/5/4
f 285/5/4 287/5/4 289/5/4
f 289/5/4 288/5/4 290/5/4
f 291/5/4 292/5/4 293/5/4
f 293/5/4 292/5/4 294/5/4
f 291/5/4 293/5/4 295/5/4
f 295/5/4 293/5/4 296/5/4
f 291/5/4 295/5/4 297/5/4
f 297/5/4 295/5/4 298/5/4
f 299/5/4 300/5/4 301/5/4
f 301/5/4 300/5/4 302/5/4
f 307/1/5 304/1/5 303/1/5
f 308/1/5 304/1/5 307/1/5
f 309/1/5 306/1/5 305/1/5
f 310/1/5 306/1/5 309/1/5
f 313/4/5 312/4/5 311/4/5
f 314/4/5 312/4/5 313/4/5
f 315/4/5 312/4/5 314/4/5
f 316/4/5 312/4/5 315/4/5
f 317/4/5 312/4/5 316/4/5
f 318/4/5 312/4/5 317/4/5
f 319/5/5 314/5/5 313/5/5
f 320/5/5 316/5/5 315/5/5
f 321/5/5 316/5/5 320/5/5
f 322/5/5 318/5/5 317/5/5
f 323/5/5 321/5/5 320/5/5
f 323/5/5 322/5/5 321/5/5
f 323/5/5 319/5/5 313/5/5
f 323/5/5 320/5/5 319/5/5
f 324/5/5 318/5/5 322/5/5
f 324/5/5 322/5/5 323/5/5
f 327/3/5 326/3/5 325/3/5
f 328/3/5 326/3/5 327/3/5
f 333/5/5 332/5/5 331/5/5
f 335/5/5 330/5/5 329/5/5
f 336/5/5 330/5/5 335/5/5
f 337/5/5 334/5/5 333/5/5
f 338/5/5 334/5/5 337/5/5
f 339/5/5 330/5/5 336/5/5
f 340/5/5 330/5/5 339/5/5
f 341/5/5 333/5/5 331/5/5
f 341/5/5 337/5/5 333/5/5
f 342/5/5 337/5/5 341/5/5
f 345/2/5 344/2/5 343/2/5
f 346/2/5 344/2/5 345/2/5
f 351/4/5 348/4/5 347/4/5
f 352/4/5 348/4/5 351/4/5
f 353/4/5 350/4/5 349/4/5
f 354/4/5 350/4/5 353/4/5
f 355/1/6 356/1/6 359/1/6
f 359/1/6 356/1/6 360/1/6
f 357/1/6 358/1/6 361/1/6
f 361/1/6 358/1/6 362/1/6
f 355/1/6 359/1/6 363/1/6
f 360/1/6 356/1/6 364/1/6
f 357/1/6 361/1/6 365/1/6
f 362/1/6 358/1/6 366/1/6
f 355/1/6 363/1/6 367/1/6
f 363/1/6 364/1/6 367/1/6
f 364/1/6 356/1/6 368/1/6
f 367/1/6 364/1/6 368/1/6
f 365/1/6 366/1/6 369/1/6
f 357/1/6 365/1/6 369/1/6
f 366/1/6 358/1/6 370/1/6
f 369/1/6 366/1/6 370/1/6
f 371/3/6 372/3/6 373/3/6
f 373/3/6 372/3/6 374/3/6
f 375/3/6 376/3/6 377/3/6
f 377/3/6 376/3/6 378/3/6
f 379/3/6 380/3/6 381/3/6
f 381/3/6 380/3/6 382/3/6
f 383/5/6 384/5/6 387/5/6
f 387/5/6 384/5/6 388/5/6
f 385/5/6 386/5/6 391/5/6
f 391/5/6 386/5/6 392/5/6
f 388/5/6 389/5/6 393/5/6
f 393/5/6 389/5/6 394/5/6
f 390/5/6 391/5/6 395/5/6
f 395/5/6 391/5/6 396/5/6
f 397/5/6 398/5/6 401/5/6
f 401/5/6 398/5/6 402/5/6
f 399/5/6 400/5/6 405/5/6
f 405/5/6 400/5/6 406/5/6
f 402/5/6 403/5/6 407/5/6
f 407/5/6 403/5/6 408/5/6
f 404/5/6 405/5/6 409/5/6
f 409/5/6 405/5/6 410/5/6
f 411/5/6 412/5/6 413/5/6
f 413/5/6 412/5/6 414/5/6
f 415/5/6 416/5/6 419/5/6
f 419/5/6 416/5/6 420/5/6
f 417/5/6 418/5/6 422/5/6
f 422/5/6 418/5/6 423/5/6
f 421/5/6 422/5/6 424/5/6
f 424/5/6 422/5/6 425/5/6
f 426/5/6 427/5/6 430/5/6
f 430/5/6 427/5/6 431/5/6
f 428/5/6 429/5/6 432/5/6
f 432/5/6 429/5/6 433/5/6
f 434/2/6 435/2/6 436/2/6
f 436/2/6 435/2/6 437/2/6
f 438/4/6 439/4/6 442/4/6
f 442/4/6 439/4/6 443/4/6
f 440/4/6 441/4/6 444/4/6
f 444/4/6 441/4/6 445/4/6
f 446/5/6 447/5/6 448/5/6
f 448/5/6 447/5/6 449/5/6
