# MagicaVoxel @ Ephtracy

# material
mtllib untitled1.mtl
usemtl palette

# normals
vn -1 0 0
vn 1 0 0
vn 0 0 1
vn 0 0 -1
vn 0 -1 0
vn 0 1 0

# texcoords
vt 0.373047 0.5
vt 0.537109 0.5
vt 0.591797 0.5
vt 0.654297 0.5

# verts
v -20 0 20
v -20 0 -0
v -20 3 20
v -20 3 -0
v -20 4 20
v -20 4 -0
v -7 2 18
v -7 2 10
v -7 2 8
v -7 3 18
v -7 3 10
v -7 3 8
v -12 2 17
v -12 2 16
v -12 2 14
v -12 2 13
v -12 3 17
v -12 3 16
v -12 3 14
v -12 3 13
v -11 2 18
v -11 2 17
v -11 2 16
v -11 2 14
v -11 2 13
v -11 2 8
v -11 3 18
v -11 3 17
v -11 3 16
v -11 3 14
v -11 3 13
v -11 3 8
v 0 0 20
v 0 0 -0
v 0 3 20
v 0 3 -0
v 0 4 20
v 0 4 -0
v -20 0 20
v -20 3 20
v -20 4 20
v 0 0 20
v 0 3 20
v 0 4 20
v -12 2 16
v -12 3 16
v -11 2 16
v -11 3 16
v -12 2 13
v -12 3 13
v -11 2 13
v -11 3 13
v -11 2 8
v -11 3 8
v -7 2 8
v -7 3 8
v -11 2 18
v -11 3 18
v -7 2 18
v -7 3 18
v -12 2 17
v -12 3 17
v -11 2 17
v -11 3 17
v -12 2 14
v -12 3 14
v -11 2 14
v -11 3 14
v -20 0 -0
v -20 3 -0
v -20 4 -0
v 0 0 -0
v 0 3 -0
v 0 4 -0
v -20 0 20
v 0 0 20
v -20 0 -0
v 0 0 -0
v -11 3 18
v -7 3 18
v -12 3 17
v -11 3 17
v -12 3 16
v -11 3 16
v -12 3 14
v -11 3 14
v -12 3 13
v -11 3 13
v -7 3 10
v -11 3 8
v -7 3 8
v -11 2 18
v -7 2 18
v -12 2 17
v -11 2 17
v -12 2 16
v -11 2 16
v -12 2 14
v -11 2 14
v -12 2 13
v -11 2 13
v -7 2 10
v -11 2 8
v -7 2 8
v -20 4 20
v 0 4 20
v -20 4 -0
v 0 4 -0

# faces
f 3/2/1 2/2/1 1/2/1
f 4/2/1 2/2/1 3/2/1
f 5/4/1 4/4/1 3/4/1
f 6/4/1 4/4/1 5/4/1
f 10/4/1 8/4/1 7/4/1
f 11/2/1 9/2/1 8/2/1
f 11/4/1 8/4/1 10/4/1
f 12/2/1 9/2/1 11/2/1
f 13/2/2 14/2/2 17/2/2
f 17/2/2 14/2/2 18/2/2
f 15/2/2 16/2/2 19/2/2
f 19/2/2 16/2/2 20/2/2
f 21/4/2 22/4/2 27/4/2
f 27/4/2 22/4/2 28/4/2
f 23/2/2 24/2/2 29/2/2
f 29/2/2 24/2/2 30/2/2
f 25/4/2 26/4/2 31/4/2
f 31/4/2 26/4/2 32/4/2
f 33/2/2 34/2/2 35/2/2
f 35/2/2 34/2/2 36/2/2
f 35/4/2 36/4/2 37/4/2
f 37/4/2 36/4/2 38/4/2
f 42/2/3 40/2/3 39/2/3
f 43/4/3 41/4/3 40/4/3
f 43/2/3 40/2/3 42/2/3
f 44/4/3 41/4/3 43/4/3
f 47/2/3 46/2/3 45/2/3
f 48/2/3 46/2/3 47/2/3
f 51/4/3 50/4/3 49/4/3
f 52/4/3 50/4/3 51/4/3
f 55/4/3 54/4/3 53/4/3
f 56/4/3 54/4/3 55/4/3
f 57/2/4 58/2/4 59/2/4
f 59/2/4 58/2/4 60/2/4
f 61/4/4 62/4/4 63/4/4
f 63/4/4 62/4/4 64/4/4
f 65/2/4 66/2/4 67/2/4
f 67/2/4 66/2/4 68/2/4
f 69/2/4 70/2/4 72/2/4
f 70/4/4 71/4/4 73/4/4
f 72/2/4 70/2/4 73/2/4
f 73/4/4 71/4/4 74/4/4
f 77/2/5 76/2/5 75/2/5
f 78/2/5 76/2/5 77/2/5
f 82/4/5 80/4/5 79/4/5
f 83/4/5 82/4/5 81/4/5
f 84/4/5 80/4/5 82/4/5
f 84/4/5 82/4/5 83/4/5
f 86/4/5 80/4/5 84/4/5
f 87/4/5 86/4/5 85/4/5
f 88/4/5 80/4/5 86/4/5
f 88/4/5 86/4/5 87/4/5
f 89/4/5 80/4/5 88/4/5
f 90/4/5 89/4/5 88/4/5
f 91/4/5 89/4/5 90/4/5
f 92/3/6 93/3/6 95/3/6
f 94/3/6 95/3/6 96/3/6
f 95/3/6 93/3/6 97/3/6
f 96/3/6 95/3/6 97/3/6
f 97/3/6 93/3/6 99/3/6
f 98/3/6 99/3/6 100/3/6
f 99/3/6 93/3/6 101/3/6
f 100/3/6 99/3/6 101/3/6
f 101/3/6 93/3/6 102/3/6
f 101/3/6 102/3/6 103/3/6
f 103/3/6 102/3/6 104/3/6
f 105/4/6 106/4/6 107/4/6
f 107/4/6 106/4/6 108/4/6
