# MagicaVoxel @ Ephtracy

# material
mtllib wilk.mtl
usemtl palette

# normals
vn -1 0 0
vn 1 0 0
vn 0 0 1
vn 0 0 -1
vn 0 -1 0
vn 0 1 0

# texcoords
vt 0.220703 0.5
vt 0.865234 0.5
vt 0.966797 0.5
vt 0.974609 0.5
vt 0.994141 0.5

# verts
v -13 7 2
v -13 7 1
v -13 7 -0
v -13 7 -1
v -13 8 2
v -13 8 1
v -13 8 -0
v -13 8 -1
v -13 12 2
v -13 12 -1
v -11 3 3
v -11 3 -2
v -11 6 3
v -11 6 -2
v -11 7 3
v -11 7 2
v -11 7 -1
v -11 7 -2
v -11 10 3
v -11 10 2
v -11 10 -1
v -11 10 -2
v -11 12 2
v -11 12 -1
v -11 13 3
v -11 13 -2
v -10 0 3
v -10 0 2
v -10 0 -1
v -10 1 3
v -10 1 2
v -10 3 2
v -10 3 -1
v -10 13 3
v -10 13 -2
v -10 14 3
v -10 14 -2
v -10 15 3
v -10 15 -2
v -10 18 3
v -10 18 2
v -10 19 -0
v -10 19 -2
v -10 22 2
v -10 22 -0
v -9 14 3
v -9 14 -2
v -9 15 3
v -9 15 -2
v -9 18 3
v -9 18 2
v -9 19 3
v -9 19 2
v -8 7 -2
v -8 7 -5
v -8 10 -2
v -8 13 -2
v -8 13 -4
v -8 13 -5
v -8 14 -2
v -8 14 -4
v -8 15 4
v -8 15 3
v -8 17 4
v -8 17 3
v -8 19 3
v -8 19 2
v -8 19 -0
v -8 19 -2
v -8 20 3
v -8 20 2
v -8 20 -0
v -8 20 -2
v -7 4 -2
v -7 4 -4
v -7 6 -2
v -7 6 -4
v -7 16 5
v -7 16 4
v -7 17 5
v -7 17 4
v -7 20 3
v -7 20 2
v -7 20 -0
v -7 20 -2
v -7 21 3
v -7 21 2
v -7 21 -0
v -7 21 -2
v -5 0 3
v -5 0 2
v -5 0 -1
v -5 1 3
v -5 1 2
v -5 3 2
v -5 3 -1
v -5 21 2
v -5 21 -0
v -5 22 2
v -5 22 -0
v -7 0 3
v -7 0 2
v -7 0 -1
v -7 1 3
v -7 1 2
v -7 3 2
v -7 3 -1
v -7 21 2
v -7 21 -0
v -7 22 2
v -7 22 -0
v -5 4 -2
v -5 4 -4
v -5 6 -2
v -5 6 -4
v -5 16 5
v -5 16 4
v -5 17 5
v -5 17 4
v -5 20 3
v -5 20 2
v -5 20 -0
v -5 20 -2
v -5 21 3
v -5 21 2
v -5 21 -0
v -5 21 -2
v -4 7 -2
v -4 7 -5
v -4 10 -2
v -4 13 -2
v -4 13 -4
v -4 13 -5
v -4 14 -2
v -4 14 -4
v -4 15 4
v -4 15 3
v -4 17 4
v -4 17 3
v -4 19 3
v -4 19 2
v -4 19 -0
v -4 19 -2
v -4 20 3
v -4 20 2
v -4 20 -0
v -4 20 -2
v -3 14 3
v -3 14 -2
v -3 15 3
v -3 15 -2
v -3 18 3
v -3 18 2
v -3 19 3
v -3 19 2
v -2 0 3
v -2 0 2
v -2 0 -1
v -2 1 3
v -2 1 2
v -2 3 2
v -2 3 -1
v -2 13 3
v -2 13 -2
v -2 14 3
v -2 14 -2
v -2 15 3
v -2 15 -2
v -2 18 3
v -2 18 2
v -2 19 -0
v -2 19 -2
v -2 22 2
v -2 22 -0
v -1 3 3
v -1 3 -2
v -1 6 3
v -1 6 -2
v -1 7 3
v -1 7 2
v -1 7 -1
v -1 7 -2
v -1 10 3
v -1 10 2
v -1 10 -1
v -1 10 -2
v -1 12 2
v -1 12 -1
v -1 13 3
v -1 13 -2
v 1 7 2
v 1 7 1
v 1 7 -0
v 1 7 -1
v 1 8 2
v 1 8 1
v 1 8 -0
v 1 8 -1
v 1 12 2
v 1 12 -1
v -7 16 5
v -7 17 5
v -5 16 5
v -5 17 5
v -8 15 4
v -8 17 4
v -7 16 4
v -7 17 4
v -5 16 4
v -5 17 4
v -4 15 4
v -4 17 4
v -11 3 3
v -11 6 3
v -11 7 3
v -11 10 3
v -11 13 3
v -10 0 3
v -10 1 3
v -10 7 3
v -10 10 3
v -10 13 3
v -10 14 3
v -10 15 3
v -10 18 3
v -9 0 3
v -9 1 3
v -9 6 3
v -9 11 3
v -9 14 3
v -9 15 3
v -9 18 3
v -9 19 3
v -8 0 3
v -8 1 3
v -8 11 3
v -8 12 3
v -8 15 3
v -8 17 3
v -8 18 3
v -8 19 3
v -8 20 3
v -7 0 3
v -7 1 3
v -7 17 3
v -7 19 3
v -7 20 3
v -7 21 3
v -5 0 3
v -5 1 3
v -5 17 3
v -5 19 3
v -5 20 3
v -5 21 3
v -4 0 3
v -4 1 3
v -4 11 3
v -4 12 3
v -4 15 3
v -4 17 3
v -4 18 3
v -4 19 3
v -4 20 3
v -3 0 3
v -3 1 3
v -3 6 3
v -3 11 3
v -3 14 3
v -3 15 3
v -3 18 3
v -3 19 3
v -2 0 3
v -2 1 3
v -2 7 3
v -2 10 3
v -2 13 3
v -2 14 3
v -2 15 3
v -2 18 3
v -1 3 3
v -1 6 3
v -1 7 3
v -1 10 3
v -1 13 3
v -13 7 2
v -13 8 2
v -13 12 2
v -12 7 2
v -12 8 2
v -11 7 2
v -11 10 2
v -11 12 2
v -10 1 2
v -10 3 2
v -10 18 2
v -10 22 2
v -9 1 2
v -9 18 2
v -9 19 2
v -9 21 2
v -8 1 2
v -8 19 2
v -8 20 2
v -8 21 2
v -7 1 2
v -7 3 2
v -7 20 2
v -7 21 2
v -7 22 2
v -5 1 2
v -5 3 2
v -5 20 2
v -5 21 2
v -5 22 2
v -4 1 2
v -4 19 2
v -4 20 2
v -4 21 2
v -3 1 2
v -3 18 2
v -3 19 2
v -3 21 2
v -2 1 2
v -2 3 2
v -2 18 2
v -2 22 2
v -1 7 2
v -1 10 2
v -1 12 2
v 0 7 2
v 0 8 2
v 1 7 2
v 1 8 2
v 1 12 2
v -10 19 -0
v -10 22 -0
v -8 19 -0
v -8 20 -0
v -7 20 -0
v -7 21 -0
v -7 22 -0
v -5 20 -0
v -5 21 -0
v -5 22 -0
v -4 19 -0
v -4 20 -0
v -2 19 -0
v -2 22 -0
v -13 7 -1
v -13 8 -1
v -13 12 -1
v -12 7 -1
v -12 8 -1
v -11 7 -1
v -11 10 -1
v -11 12 -1
v -10 0 -1
v -10 3 -1
v -7 0 -1
v -7 3 -1
v -5 0 -1
v -5 3 -1
v -2 0 -1
v -2 3 -1
v -1 7 -1
v -1 10 -1
v -1 12 -1
v 0 7 -1
v 0 8 -1
v 1 7 -1
v 1 8 -1
v 1 12 -1
v -11 3 -2
v -11 6 -2
v -11 7 -2
v -11 10 -2
v -11 13 -2
v -10 13 -2
v -10 14 -2
v -10 15 -2
v -10 19 -2
v -9 14 -2
v -9 15 -2
v -8 7 -2
v -8 10 -2
v -8 13 -2
v -8 14 -2
v -8 19 -2
v -8 20 -2
v -7 4 -2
v -7 6 -2
v -7 7 -2
v -7 20 -2
v -7 21 -2
v -5 4 -2
v -5 6 -2
v -5 7 -2
v -5 20 -2
v -5 21 -2
v -4 7 -2
v -4 10 -2
v -4 13 -2
v -4 14 -2
v -4 19 -2
v -4 20 -2
v -3 14 -2
v -3 15 -2
v -2 13 -2
v -2 14 -2
v -2 15 -2
v -2 19 -2
v -1 3 -2
v -1 6 -2
v -1 7 -2
v -1 10 -2
v -1 13 -2
v -8 13 -4
v -8 14 -4
v -7 4 -4
v -7 6 -4
v -5 4 -4
v -5 6 -4
v -4 13 -4
v -4 14 -4
v -8 7 -5
v -8 13 -5
v -4 7 -5
v -4 13 -5
v -10 0 3
v -9 0 3
v -8 0 3
v -7 0 3
v -5 0 3
v -4 0 3
v -3 0 3
v -2 0 3
v -10 0 2
v -9 0 2
v -8 0 2
v -7 0 2
v -5 0 2
v -4 0 2
v -3 0 2
v -2 0 2
v -10 0 -1
v -7 0 -1
v -5 0 -1
v -2 0 -1
v -11 3 3
v -1 3 3
v -10 3 2
v -7 3 2
v -5 3 2
v -2 3 2
v -10 3 -1
v -7 3 -1
v -5 3 -1
v -2 3 -1
v -11 3 -2
v -1 3 -2
v -7 4 -2
v -5 4 -2
v -7 4 -4
v -5 4 -4
v -13 7 2
v -12 7 2
v -11 7 2
v -1 7 2
v 0 7 2
v 1 7 2
v -13 7 1
v -12 7 1
v 0 7 1
v 1 7 1
v -13 7 -0
v -12 7 -0
v 0 7 -0
v 1 7 -0
v -13 7 -1
v -12 7 -1
v -11 7 -1
v -1 7 -1
v 0 7 -1
v 1 7 -1
v -8 7 -2
v -7 7 -2
v -5 7 -2
v -4 7 -2
v -8 7 -5
v -4 7 -5
v -8 15 4
v -4 15 4
v -10 15 3
v -9 15 3
v -8 15 3
v -4 15 3
v -3 15 3
v -2 15 3
v -10 15 -2
v -9 15 -2
v -3 15 -2
v -2 15 -2
v -7 16 5
v -5 16 5
v -7 16 4
v -5 16 4
v -10 1 3
v -9 1 3
v -8 1 3
v -7 1 3
v -5 1 3
v -4 1 3
v -3 1 3
v -2 1 3
v -10 1 2
v -9 1 2
v -8 1 2
v -7 1 2
v -5 1 2
v -4 1 2
v -3 1 2
v -2 1 2
v -7 6 -2
v -5 6 -2
v -7 6 -4
v -5 6 -4
v -13 12 2
v -11 12 2
v -1 12 2
v 1 12 2
v -13 12 -1
v -11 12 -1
v -1 12 -1
v 1 12 -1
v -11 13 3
v -10 13 3
v -2 13 3
v -1 13 3
v -11 13 -2
v -10 13 -2
v -2 13 -2
v -1 13 -2
v -8 13 -4
v -4 13 -4
v -8 13 -5
v -4 13 -5
v -10 14 3
v -9 14 3
v -3 14 3
v -2 14 3
v -10 14 -2
v -9 14 -2
v -8 14 -2
v -4 14 -2
v -3 14 -2
v -2 14 -2
v -8 14 -4
v -4 14 -4
v -7 17 5
v -5 17 5
v -8 17 4
v -7 17 4
v -5 17 4
v -4 17 4
v -8 17 3
v -7 17 3
v -5 17 3
v -4 17 3
v -10 18 3
v -9 18 3
v -3 18 3
v -2 18 3
v -10 18 2
v -9 18 2
v -3 18 2
v -2 18 2
v -9 19 3
v -8 19 3
v -4 19 3
v -3 19 3
v -9 19 2
v -8 19 2
v -4 19 2
v -3 19 2
v -10 19 -0
v -8 19 -0
v -4 19 -0
v -2 19 -0
v -10 19 -2
v -8 19 -2
v -4 19 -2
v -2 19 -2
v -8 20 3
v -7 20 3
v -5 20 3
v -4 20 3
v -8 20 2
v -7 20 2
v -5 20 2
v -4 20 2
v -8 20 -0
v -7 20 -0
v -5 20 -0
v -4 20 -0
v -8 20 -2
v -7 20 -2
v -5 20 -2
v -4 20 -2
v -7 21 3
v -5 21 3
v -7 21 2
v -5 21 2
v -7 21 -0
v -5 21 -0
v -7 21 -2
v -5 21 -2
v -10 22 2
v -7 22 2
v -5 22 2
v -2 22 2
v -10 22 -0
v -7 22 -0
v -5 22 -0
v -2 22 -0

# faces
f 5/4/1 2/4/1 1/4/1
f 6/3/1 3/3/1 2/3/1
f 6/4/1 2/4/1 5/4/1
f 7/4/1 4/4/1 3/4/1
f 7/3/1 3/3/1 6/3/1
f 8/4/1 4/4/1 7/4/1
f 9/3/1 6/3/1 5/3/1
f 9/3/1 7/3/1 6/3/1
f 9/3/1 8/3/1 7/3/1
f 10/3/1 8/3/1 9/3/1
f 13/3/1 12/3/1 11/3/1
f 14/3/1 12/3/1 13/3/1
f 15/2/1 14/2/1 13/2/1
f 16/2/1 14/2/1 15/2/1
f 17/2/1 14/2/1 16/2/1
f 18/2/1 14/2/1 17/2/1
f 19/3/1 16/3/1 15/3/1
f 20/3/1 16/3/1 19/3/1
f 21/3/1 18/3/1 17/3/1
f 22/3/1 18/3/1 21/3/1
f 23/4/1 20/4/1 19/4/1
f 24/4/1 22/4/1 21/4/1
f 25/4/1 23/4/1 19/4/1
f 25/4/1 24/4/1 23/4/1
f 26/4/1 22/4/1 24/4/1
f 26/4/1 24/4/1 25/4/1
f 30/4/1 28/4/1 27/4/1
f 31/3/1 29/3/1 28/3/1
f 31/4/1 28/4/1 30/4/1
f 32/3/1 29/3/1 31/3/1
f 33/3/1 29/3/1 32/3/1
f 36/2/1 35/2/1 34/2/1
f 37/2/1 35/2/1 36/2/1
f 40/4/1 39/4/1 38/4/1
f 41/4/1 39/4/1 40/4/1
f 42/4/1 39/4/1 41/4/1
f 43/4/1 39/4/1 42/4/1
f 44/4/1 42/4/1 41/4/1
f 45/4/1 42/4/1 44/4/1
f 48/4/1 47/4/1 46/4/1
f 49/4/1 47/4/1 48/4/1
f 52/4/1 51/4/1 50/4/1
f 53/4/1 51/4/1 52/4/1
f 56/2/1 55/2/1 54/2/1
f 57/2/1 55/2/1 56/2/1
f 58/2/1 55/2/1 57/2/1
f 59/2/1 55/2/1 58/2/1
f 60/2/1 58/2/1 57/2/1
f 61/2/1 58/2/1 60/2/1
f 64/3/1 63/3/1 62/3/1
f 65/3/1 63/3/1 64/3/1
f 70/3/1 67/3/1 66/3/1
f 71/3/1 67/3/1 70/3/1
f 72/4/1 69/4/1 68/4/1
f 73/4/1 69/4/1 72/4/1
f 76/4/1 75/4/1 74/4/1
f 77/4/1 75/4/1 76/4/1
f 80/5/1 79/5/1 78/5/1
f 81/5/1 79/5/1 80/5/1
f 86/4/1 83/4/1 82/4/1
f 87/4/1 83/4/1 86/4/1
f 88/4/1 85/4/1 84/4/1
f 89/4/1 85/4/1 88/4/1
f 93/4/1 91/4/1 90/4/1
f 94/3/1 92/3/1 91/3/1
f 94/4/1 91/4/1 93/4/1
f 95/3/1 92/3/1 94/3/1
f 96/3/1 92/3/1 95/3/1
f 99/4/1 98/4/1 97/4/1
f 100/4/1 98/4/1 99/4/1
f 101/4/2 102/4/2 104/4/2
f 102/3/2 103/3/2 105/3/2
f 104/4/2 102/4/2 105/4/2
f 105/3/2 103/3/2 106/3/2
f 106/3/2 103/3/2 107/3/2
f 108/4/2 109/4/2 110/4/2
f 110/4/2 109/4/2 111/4/2
f 112/4/2 113/4/2 114/4/2
f 114/4/2 113/4/2 115/4/2
f 116/5/2 117/5/2 118/5/2
f 118/5/2 117/5/2 119/5/2
f 120/4/2 121/4/2 124/4/2
f 124/4/2 121/4/2 125/4/2
f 122/4/2 123/4/2 126/4/2
f 126/4/2 123/4/2 127/4/2
f 128/2/2 129/2/2 130/2/2
f 130/2/2 129/2/2 131/2/2
f 131/2/2 129/2/2 132/2/2
f 132/2/2 129/2/2 133/2/2
f 131/2/2 132/2/2 134/2/2
f 134/2/2 132/2/2 135/2/2
f 136/3/2 137/3/2 138/3/2
f 138/3/2 137/3/2 139/3/2
f 140/3/2 141/3/2 144/3/2
f 144/3/2 141/3/2 145/3/2
f 142/4/2 143/4/2 146/4/2
f 146/4/2 143/4/2 147/4/2
f 148/4/2 149/4/2 150/4/2
f 150/4/2 149/4/2 151/4/2
f 152/4/2 153/4/2 154/4/2
f 154/4/2 153/4/2 155/4/2
f 156/4/2 157/4/2 159/4/2
f 157/3/2 158/3/2 160/3/2
f 159/4/2 157/4/2 160/4/2
f 160/3/2 158/3/2 161/3/2
f 161/3/2 158/3/2 162/3/2
f 163/2/2 164/2/2 165/2/2
f 165/2/2 164/2/2 166/2/2
f 167/4/2 168/4/2 169/4/2
f 169/4/2 168/4/2 170/4/2
f 170/4/2 168/4/2 171/4/2
f 171/4/2 168/4/2 172/4/2
f 170/4/2 171/4/2 173/4/2
f 173/4/2 171/4/2 174/4/2
f 175/3/2 176/3/2 177/3/2
f 177/3/2 176/3/2 178/3/2
f 177/2/2 178/2/2 179/2/2
f 179/2/2 178/2/2 180/2/2
f 180/2/2 178/2/2 181/2/2
f 181/2/2 178/2/2 182/2/2
f 179/3/2 180/3/2 183/3/2
f 183/3/2 180/3/2 184/3/2
f 181/3/2 182/3/2 185/3/2
f 185/3/2 182/3/2 186/3/2
f 183/4/2 184/4/2 187/4/2
f 185/4/2 186/4/2 188/4/2
f 183/4/2 187/4/2 189/4/2
f 187/4/2 188/4/2 189/4/2
f 188/4/2 186/4/2 190/4/2
f 189/4/2 188/4/2 190/4/2
f 191/4/2 192/4/2 195/4/2
f 192/3/2 193/3/2 196/3/2
f 195/4/2 192/4/2 196/4/2
f 193/4/2 194/4/2 197/4/2
f 196/3/2 193/3/2 197/3/2
f 197/4/2 194/4/2 198/4/2
f 195/3/2 196/3/2 199/3/2
f 196/3/2 197/3/2 199/3/2
f 197/3/2 198/3/2 199/3/2
f 199/3/2 198/3/2 200/3/2
f 203/5/3 202/5/3 201/5/3
f 204/5/3 202/5/3 203/5/3
f 207/3/3 206/3/3 205/3/3
f 208/3/3 206/3/3 207/3/3
f 209/3/3 207/3/3 205/3/3
f 211/3/3 209/3/3 205/3/3
f 211/3/3 210/3/3 209/3/3
f 212/3/3 210/3/3 211/3/3
f 220/2/3 215/2/3 214/2/3
f 220/3/3 216/3/3 215/3/3
f 221/4/3 217/4/3 216/4/3
f 221/3/3 216/3/3 220/3/3
f 222/4/3 217/4/3 221/4/3
f 226/4/3 219/4/3 218/4/3
f 227/4/3 219/4/3 226/4/3
f 228/3/3 214/3/3 213/3/3
f 228/2/3 220/2/3 214/2/3
f 228/2/3 221/2/3 220/2/3
f 228/2/3 223/2/3 222/2/3
f 228/2/3 222/2/3 221/2/3
f 229/2/3 223/2/3 228/2/3
f 230/2/3 223/2/3 229/2/3
f 231/4/3 225/4/3 224/4/3
f 232/4/3 225/4/3 231/4/3
f 234/3/3 227/3/3 226/3/3
f 235/3/3 227/3/3 234/3/3
f 236/4/3 230/4/3 229/4/3
f 236/3/3 229/3/3 228/3/3
f 236/4/3 231/4/3 230/4/3
f 237/4/3 231/4/3 236/4/3
f 238/3/3 232/3/3 231/3/3
f 238/4/3 231/4/3 237/4/3
f 239/3/3 232/3/3 238/3/3
f 240/4/3 233/4/3 232/4/3
f 240/3/3 232/3/3 239/3/3
f 241/4/3 233/4/3 240/4/3
f 243/4/3 235/4/3 234/4/3
f 244/4/3 235/4/3 243/4/3
f 245/5/3 241/5/3 240/5/3
f 245/5/3 240/5/3 239/5/3
f 246/3/3 242/3/3 241/3/3
f 246/5/3 241/5/3 245/5/3
f 247/3/3 242/3/3 246/3/3
f 251/3/3 246/3/3 245/3/3
f 252/4/3 248/4/3 247/4/3
f 252/3/3 246/3/3 251/3/3
f 252/4/3 247/4/3 246/4/3
f 253/4/3 248/4/3 252/4/3
f 254/4/3 248/4/3 253/4/3
f 255/4/3 250/4/3 249/4/3
f 256/4/3 250/4/3 255/4/3
f 257/3/3 237/3/3 236/3/3
f 257/3/3 236/3/3 228/3/3
f 258/4/3 238/4/3 237/4/3
f 258/3/3 237/3/3 257/3/3
f 259/4/3 238/4/3 258/4/3
f 260/5/3 252/5/3 251/5/3
f 261/5/3 252/5/3 260/5/3
f 262/3/3 253/3/3 252/3/3
f 262/5/3 252/5/3 261/5/3
f 263/3/3 253/3/3 262/3/3
f 264/3/3 256/3/3 255/3/3
f 265/3/3 256/3/3 264/3/3
f 266/3/3 228/3/3 213/3/3
f 266/3/3 257/3/3 228/3/3
f 267/4/3 259/4/3 258/4/3
f 267/3/3 257/3/3 266/3/3
f 267/4/3 258/4/3 257/4/3
f 268/4/3 259/4/3 267/4/3
f 269/3/3 261/3/3 260/3/3
f 269/4/3 259/4/3 268/4/3
f 269/3/3 260/3/3 259/3/3
f 270/4/3 262/4/3 261/4/3
f 270/3/3 261/3/3 269/3/3
f 271/4/3 262/4/3 270/4/3
f 272/4/3 265/4/3 264/4/3
f 273/4/3 265/4/3 272/4/3
f 274/2/3 268/2/3 267/2/3
f 274/2/3 267/2/3 266/2/3
f 275/2/3 268/2/3 274/2/3
f 276/2/3 268/2/3 275/2/3
f 277/2/3 268/2/3 276/2/3
f 278/4/3 270/4/3 269/4/3
f 279/4/3 270/4/3 278/4/3
f 280/3/3 266/3/3 213/3/3
f 281/2/3 274/2/3 266/2/3
f 281/3/3 266/3/3 280/3/3
f 282/3/3 275/3/3 274/3/3
f 282/2/3 274/2/3 281/2/3
f 283/4/3 276/4/3 275/4/3
f 283/3/3 275/3/3 282/3/3
f 284/4/3 276/4/3 283/4/3
f 288/4/3 286/4/3 285/4/3
f 289/3/3 287/3/3 286/3/3
f 289/4/3 286/4/3 288/4/3
f 290/3/3 289/3/3 288/3/3
f 291/3/3 287/3/3 289/3/3
f 291/3/3 289/3/3 290/3/3
f 292/3/3 287/3/3 291/3/3
f 297/3/3 294/3/3 293/3/3
f 298/4/3 296/4/3 295/4/3
f 299/4/3 296/4/3 298/4/3
f 300/4/3 296/4/3 299/4/3
f 301/3/3 294/3/3 297/3/3
f 302/1/3 300/1/3 299/1/3
f 303/1/3 300/1/3 302/1/3
f 304/4/3 296/4/3 300/4/3
f 304/1/3 300/1/3 303/1/3
f 305/3/3 294/3/3 301/3/3
f 306/3/3 294/3/3 305/3/3
f 307/4/3 304/4/3 303/4/3
f 308/4/3 296/4/3 304/4/3
f 308/4/3 304/4/3 307/4/3
f 309/4/3 296/4/3 308/4/3
f 315/3/3 311/3/3 310/3/3
f 317/4/3 314/4/3 313/4/3
f 317/4/3 313/4/3 312/4/3
f 318/4/3 314/4/3 317/4/3
f 319/3/3 311/3/3 315/3/3
f 321/1/3 317/1/3 316/1/3
f 321/1/3 318/1/3 317/1/3
f 322/4/3 314/4/3 318/4/3
f 322/1/3 318/1/3 321/1/3
f 323/3/3 311/3/3 319/3/3
f 324/3/3 311/3/3 323/3/3
f 325/4/3 321/4/3 320/4/3
f 325/4/3 322/4/3 321/4/3
f 326/4/3 314/4/3 322/4/3
f 326/4/3 322/4/3 325/4/3
f 330/3/3 328/3/3 327/3/3
f 330/3/3 329/3/3 328/3/3
f 331/3/3 329/3/3 330/3/3
f 332/4/3 331/4/3 330/4/3
f 333/3/3 329/3/3 331/3/3
f 333/4/3 331/4/3 332/4/3
f 334/3/3 329/3/3 333/3/3
f 335/4/4 336/4/4 337/4/4
f 337/4/4 336/4/4 338/4/4
f 338/4/4 336/4/4 339/4/4
f 339/4/4 336/4/4 340/4/4
f 340/4/4 336/4/4 341/4/4
f 342/4/4 343/4/4 346/4/4
f 343/4/4 344/4/4 346/4/4
f 345/4/4 346/4/4 347/4/4
f 346/4/4 344/4/4 348/4/4
f 347/4/4 346/4/4 348/4/4
f 349/4/4 350/4/4 352/4/4
f 350/3/4 351/3/4 353/3/4
f 352/4/4 350/4/4 353/4/4
f 352/3/4 353/3/4 354/3/4
f 353/3/4 351/3/4 355/3/4
f 354/3/4 353/3/4 355/3/4
f 355/3/4 351/3/4 356/3/4
f 357/3/4 358/3/4 359/3/4
f 359/3/4 358/3/4 360/3/4
f 361/3/4 362/3/4 363/3/4
f 363/3/4 362/3/4 364/3/4
f 365/3/4 366/3/4 368/3/4
f 366/3/4 367/3/4 368/3/4
f 368/3/4 367/3/4 369/3/4
f 368/4/4 369/4/4 370/4/4
f 369/3/4 367/3/4 371/3/4
f 370/4/4 369/4/4 371/4/4
f 371/3/4 367/3/4 372/3/4
f 376/4/4 377/4/4 378/4/4
f 378/2/4 379/2/4 382/2/4
f 380/4/4 381/4/4 383/4/4
f 374/2/4 375/2/4 384/2/4
f 375/3/4 376/3/4 384/3/4
f 376/4/4 378/4/4 385/4/4
f 384/3/4 376/3/4 385/3/4
f 378/2/4 382/2/4 386/2/4
f 385/4/4 378/4/4 386/4/4
f 382/4/4 383/4/4 387/4/4
f 386/2/4 382/2/4 387/2/4
f 383/4/4 381/4/4 388/4/4
f 387/4/4 383/4/4 388/4/4
f 373/3/4 374/3/4 390/3/4
f 374/2/4 384/2/4 391/2/4
f 390/3/4 374/3/4 391/3/4
f 391/2/4 384/2/4 392/2/4
f 388/4/4 389/4/4 393/4/4
f 387/4/4 388/4/4 393/4/4
f 373/3/4 390/3/4 395/3/4
f 391/3/4 392/3/4 396/3/4
f 396/3/4 392/3/4 397/3/4
f 393/4/4 394/4/4 398/4/4
f 387/4/4 393/4/4 398/4/4
f 398/4/4 394/4/4 399/4/4
f 396/2/4 397/2/4 400/2/4
f 387/4/4 398/4/4 403/4/4
f 403/4/4 398/4/4 404/4/4
f 404/4/4 398/4/4 405/4/4
f 402/2/4 403/2/4 406/2/4
f 403/4/4 404/4/4 406/4/4
f 406/4/4 404/4/4 407/4/4
f 401/4/4 402/4/4 408/4/4
f 402/2/4 406/2/4 408/2/4
f 408/2/4 406/2/4 409/2/4
f 407/4/4 404/4/4 410/4/4
f 410/4/4 404/4/4 411/4/4
f 373/3/4 395/3/4 412/3/4
f 395/3/4 396/3/4 412/3/4
f 396/2/4 400/2/4 413/2/4
f 412/3/4 396/3/4 413/3/4
f 400/3/4 401/3/4 414/3/4
f 413/2/4 400/2/4 414/2/4
f 401/4/4 408/4/4 415/4/4
f 414/3/4 401/3/4 415/3/4
f 415/4/4 408/4/4 416/4/4
f 419/4/4 420/4/4 421/4/4
f 421/4/4 420/4/4 422/4/4
f 417/2/4 418/2/4 423/2/4
f 423/2/4 418/2/4 424/2/4
f 425/2/4 426/2/4 427/2/4
f 427/2/4 426/2/4 428/2/4
f 437/4/5 430/4/5 429/4/5
f 438/3/5 431/3/5 430/3/5
f 438/4/5 430/4/5 437/4/5
f 439/4/5 432/4/5 431/4/5
f 439/3/5 431/3/5 438/3/5
f 440/4/5 432/4/5 439/4/5
f 441/4/5 434/4/5 433/4/5
f 442/3/5 435/3/5 434/3/5
f 442/4/5 434/4/5 441/4/5
f 443/4/5 436/4/5 435/4/5
f 443/3/5 435/3/5 442/3/5
f 444/4/5 436/4/5 443/4/5
f 445/3/5 438/3/5 437/3/5
f 445/3/5 440/3/5 439/3/5
f 445/3/5 439/3/5 438/3/5
f 446/3/5 440/3/5 445/3/5
f 447/3/5 442/3/5 441/3/5
f 447/3/5 444/3/5 443/3/5
f 447/3/5 443/3/5 442/3/5
f 448/3/5 444/3/5 447/3/5
f 451/3/5 450/3/5 449/3/5
f 452/3/5 450/3/5 451/3/5
f 453/3/5 450/3/5 452/3/5
f 454/3/5 450/3/5 453/3/5
f 455/3/5 451/3/5 449/3/5
f 456/3/5 453/3/5 452/3/5
f 457/3/5 453/3/5 456/3/5
f 458/3/5 450/3/5 454/3/5
f 459/3/5 457/3/5 456/3/5
f 459/3/5 458/3/5 457/3/5
f 459/3/5 455/3/5 449/3/5
f 459/3/5 456/3/5 455/3/5
f 460/3/5 450/3/5 458/3/5
f 460/3/5 458/3/5 459/3/5
f 463/4/5 462/4/5 461/4/5
f 464/4/5 462/4/5 463/4/5
f 471/4/5 466/4/5 465/4/5
f 472/3/5 467/3/5 466/3/5
f 472/4/5 466/4/5 471/4/5
f 473/4/5 470/4/5 469/4/5
f 473/3/5 469/3/5 468/3/5
f 474/4/5 470/4/5 473/4/5
f 475/3/5 472/3/5 471/3/5
f 476/3/5 467/3/5 472/3/5
f 476/3/5 472/3/5 475/3/5
f 477/3/5 473/3/5 468/3/5
f 477/3/5 474/3/5 473/3/5
f 478/3/5 474/3/5 477/3/5
f 479/4/5 476/4/5 475/4/5
f 480/3/5 467/3/5 476/3/5
f 480/4/5 476/4/5 479/4/5
f 481/3/5 467/3/5 480/3/5
f 482/3/5 477/3/5 468/3/5
f 483/4/5 478/4/5 477/4/5
f 483/3/5 477/3/5 482/3/5
f 484/4/5 478/4/5 483/4/5
f 489/2/5 486/2/5 485/2/5
f 489/2/5 488/2/5 487/2/5
f 489/2/5 487/2/5 486/2/5
f 490/2/5 488/2/5 489/2/5
f 495/3/5 492/3/5 491/3/5
f 496/3/5 492/3/5 495/3/5
f 499/4/5 494/4/5 493/4/5
f 500/4/5 494/4/5 499/4/5
f 501/4/5 498/4/5 497/4/5
f 502/4/5 498/4/5 501/4/5
f 505/5/5 504/5/5 503/5/5
f 506/5/5 504/5/5 505/5/5
f 507/4/6 508/4/6 515/4/6
f 508/3/6 509/3/6 516/3/6
f 515/4/6 508/4/6 516/4/6
f 509/4/6 510/4/6 517/4/6
f 516/3/6 509/3/6 517/3/6
f 517/4/6 510/4/6 518/4/6
f 511/4/6 512/4/6 519/4/6
f 512/3/6 513/3/6 520/3/6
f 519/4/6 512/4/6 520/4/6
f 513/4/6 514/4/6 521/4/6
f 520/3/6 513/3/6 521/3/6
f 521/4/6 514/4/6 522/4/6
f 523/4/6 524/4/6 525/4/6
f 525/4/6 524/4/6 526/4/6
f 527/3/6 528/3/6 531/3/6
f 531/3/6 528/3/6 532/3/6
f 529/3/6 530/3/6 533/3/6
f 533/3/6 530/3/6 534/3/6
f 535/4/6 536/4/6 539/4/6
f 539/4/6 536/4/6 540/4/6
f 537/4/6 538/4/6 541/4/6
f 541/4/6 538/4/6 542/4/6
f 543/2/6 544/2/6 545/2/6
f 545/2/6 544/2/6 546/2/6
f 547/2/6 548/2/6 551/2/6
f 551/2/6 548/2/6 552/2/6
f 549/2/6 550/2/6 555/2/6
f 555/2/6 550/2/6 556/2/6
f 553/2/6 554/2/6 557/2/6
f 557/2/6 554/2/6 558/2/6
f 559/5/6 560/5/6 562/5/6
f 562/5/6 560/5/6 563/5/6
f 561/3/6 562/3/6 565/3/6
f 563/3/6 564/3/6 565/3/6
f 562/3/6 563/3/6 565/3/6
f 565/3/6 564/3/6 566/3/6
f 566/3/6 564/3/6 567/3/6
f 567/3/6 564/3/6 568/3/6
f 569/4/6 570/4/6 573/4/6
f 573/4/6 570/4/6 574/4/6
f 571/4/6 572/4/6 575/4/6
f 575/4/6 572/4/6 576/4/6
f 577/4/6 578/4/6 581/4/6
f 581/4/6 578/4/6 582/4/6
f 579/4/6 580/4/6 583/4/6
f 583/4/6 580/4/6 584/4/6
f 585/4/6 586/4/6 589/4/6
f 589/4/6 586/4/6 590/4/6
f 587/4/6 588/4/6 591/4/6
f 591/4/6 588/4/6 592/4/6
f 593/3/6 594/3/6 597/3/6
f 597/3/6 594/3/6 598/3/6
f 595/3/6 596/3/6 599/3/6
f 599/3/6 596/3/6 600/3/6
f 601/4/6 602/4/6 605/4/6
f 605/4/6 602/4/6 606/4/6
f 603/4/6 604/4/6 607/4/6
f 607/4/6 604/4/6 608/4/6
f 609/4/6 610/4/6 611/4/6
f 611/4/6 610/4/6 612/4/6
f 611/4/6 612/4/6 613/4/6
f 613/4/6 612/4/6 614/4/6
f 613/4/6 614/4/6 615/4/6
f 615/4/6 614/4/6 616/4/6
f 617/4/6 618/4/6 621/4/6
f 621/4/6 618/4/6 622/4/6
f 619/4/6 620/4/6 623/4/6
f 623/4/6 620/4/6 624/4/6
